<svg width="450" height="332" viewBox="0 0 450 332" fill="none" xmlns="http://www.w3.org/2000/svg">
<g clip-path="url(#clip0_2_88)">
<path d="M191.833 225.131C191.833 225.131 251.594 217.966 272.51 206.623C293.426 195.279 448.805 189.906 448.805 225.131C448.805 260.356 270.12 275.879 270.12 275.879L176.295 270.506L191.833 225.131Z" fill="#FBBEBE"/>
<path opacity="0.1" d="M191.833 225.131C191.833 225.131 251.594 217.966 272.51 206.623C293.426 195.279 448.805 189.906 448.805 225.131C448.805 260.356 270.12 275.879 270.12 275.879L176.295 270.506L191.833 225.131Z" fill="black"/>
<path d="M209.163 218.563L196.614 254.983L0 257.371V203.638C0 203.638 75.2988 186.324 135.06 223.34C135.06 223.34 205.578 214.981 209.163 218.563Z" fill="#6C584C"/>
<path opacity="0.1" d="M209.163 218.505L196.614 254.924L0 257.312V203.579C0 203.579 75.2988 186.265 135.06 223.281C135.06 223.281 205.578 214.923 209.163 218.505Z" fill="black"/>
<path d="M433.953 203.339C433.953 205.374 429.385 206.885 428.936 208.847C428.49 210.794 431.204 213.755 430.346 215.614C429.458 217.515 428.409 219.337 427.211 221.06C426.086 222.669 422.611 222.434 421.186 223.943C419.791 225.314 418.313 226.598 416.761 227.788C415.249 229.044 413.201 229.307 411.482 230.464C409.847 231.563 410.045 235.597 408.236 236.598C406.508 237.555 403.863 236.785 401.989 237.645C400.19 238.471 399.241 241.456 397.318 242.186C395.463 242.89 393.167 242.587 391.206 243.197C389.308 243.788 387.184 243.692 385.195 244.189C383.264 244.671 381.789 247.563 379.78 247.953C377.822 248.333 375.528 247.32 373.504 247.608C371.528 247.889 369.229 245.39 367.196 245.579C365.206 245.764 363.33 246.921 361.292 247.014C359.293 247.106 357.318 247.985 355.279 247.985C353.241 247.985 351.137 249.896 349.139 249.804C347.101 249.711 345.256 246.815 343.265 246.63C341.232 246.441 338.806 249.465 336.83 249.184C334.806 248.897 333.203 245.936 331.245 245.556C329.236 245.166 326.64 247.282 324.708 246.799C322.719 246.302 321.539 242.858 319.64 242.267C317.679 241.658 315.249 242.484 313.394 241.78C311.47 241.049 309.127 241.167 307.327 240.341C305.453 239.481 304.107 237.446 302.379 236.489C300.571 235.488 299.737 233.004 298.103 231.905C296.383 230.748 293.764 230.896 292.252 229.639C290.655 228.313 287.664 228.244 286.317 226.817C284.892 225.308 284.316 222.774 283.191 221.164C282.006 219.469 284.331 215.886 283.504 214.094C282.646 212.235 279.057 211.48 278.612 209.533C278.153 207.5 277.917 205.423 277.909 203.339C277.909 201.304 280.978 199.749 281.427 197.786C281.873 195.839 279.614 193.043 280.472 191.184C281.3 189.392 281.194 186.638 282.379 184.943C283.504 183.334 286.312 182.703 287.736 181.194C289.084 179.767 291.495 179.369 293.091 178.043C294.603 176.787 294.41 172.998 296.13 171.842C297.764 170.742 300.047 170.241 301.855 169.239C303.583 168.283 306.028 168.444 307.903 167.584C309.702 166.758 312.52 168.385 314.443 167.655C316.298 166.951 317.803 165.412 319.764 164.802C321.662 164.212 322.554 159.71 324.542 159.213C326.474 158.731 328.85 159.532 330.859 159.142C332.817 158.762 335.45 162.313 337.474 162.026C339.451 161.745 340.929 157.003 342.963 156.814C344.953 156.629 347.197 159.085 349.235 158.991C351.233 158.9 353.24 160.338 355.279 160.338C357.317 160.338 359.348 158.364 361.346 158.455C363.385 158.549 365.182 161.158 367.172 161.343C369.205 161.533 371.702 157.563 373.678 157.844C375.702 158.132 377.266 161.2 379.224 161.58C381.233 161.97 383.75 160.065 385.682 160.548C387.671 161.045 388.868 164.306 390.766 164.897C392.727 165.507 393.935 167.807 395.79 168.511C397.714 169.242 401.287 165.825 403.087 166.651C404.961 167.511 406.58 168.999 408.308 169.956C410.116 170.957 412.991 170.454 414.626 171.553C416.345 172.71 416.768 175.814 418.28 177.071C419.876 178.397 422.509 178.796 423.856 180.223C425.281 181.733 425.479 184.437 426.604 186.046C427.789 187.741 427.752 190.09 428.579 191.881C429.437 193.74 431.729 195.146 432.174 197.093C432.623 199.055 433.953 201.305 433.953 203.339Z" fill="#3F3D56"/>
<path d="M218.725 240.654C218.725 240.654 286.255 206.026 329.88 219.161C373.506 232.295 434.462 209.608 441.633 217.369C448.805 225.131 458.964 308.716 372.908 313.492C286.853 318.268 213.347 299.163 213.347 299.163L218.725 240.654Z" fill="#FBBEBE"/>
<path d="M202.822 236.966C202.822 236.966 229.482 235.28 228.287 244.833C227.092 254.385 225.896 328.418 218.725 330.209C211.554 332 154.781 332 131.474 332H0V217.541C0 217.541 93.2271 211.996 139.841 235.28C139.841 235.28 195.883 234.472 202.822 236.966Z" fill="#6C584C"/>
<path d="M327.718 57.9359C325.17 58.0797 322.713 58.9295 320.622 60.3901C318.531 61.8508 316.889 63.8645 315.879 66.2054C312.919 73.3542 316.73 81.7515 322.452 86.9645C328.174 92.1774 335.524 95.1571 342.202 99.0737C351.172 104.334 359.232 111.637 363.72 121.011C368.208 130.385 368.686 141.997 363.41 150.952C358.513 159.264 349.61 164.239 341.118 168.827" stroke="#3F3D56" stroke-miterlimit="10"/>
<path d="M351.622 14.3524C349.075 14.4961 346.618 15.3459 344.526 16.8066C342.435 18.2672 340.793 20.2809 339.783 22.6219C336.823 29.7706 340.635 38.1679 346.356 43.3809C352.078 48.5939 359.428 51.5736 366.106 55.4901C375.076 60.7508 383.136 68.0534 387.625 77.4275C392.113 86.8015 392.59 98.4133 387.314 107.369C382.418 115.681 373.514 120.656 365.022 125.244" stroke="#3F3D56" stroke-miterlimit="10"/>
<path d="M430.218 24.3763C428.115 22.932 425.652 22.1014 423.103 21.9775C420.555 21.8536 418.022 22.4413 415.789 23.6749C409.068 27.5171 406.936 36.4881 408.266 44.1095C409.596 51.7309 413.582 58.5822 416.463 65.7634C420.332 75.4089 422.231 86.1127 420.035 96.2699C417.84 106.427 411.102 115.901 401.443 119.755C392.478 123.333 382.389 121.822 372.863 120.256" stroke="#3F3D56" stroke-miterlimit="10"/>
<path d="M360.956 114.475C368.877 114.475 375.299 111.359 375.299 107.515C375.299 103.671 368.877 100.555 360.956 100.555C353.035 100.555 346.614 103.671 346.614 107.515C346.614 111.359 353.035 114.475 360.956 114.475Z" fill="#57B894"/>
<path d="M359.163 113.281C367.085 113.281 373.506 110.165 373.506 106.321C373.506 102.477 367.085 99.3613 359.163 99.3613C351.242 99.3613 344.821 102.477 344.821 106.321C344.821 110.165 351.242 113.281 359.163 113.281Z" stroke="#3F3D56" stroke-miterlimit="10"/>
<path d="M392.032 108.505C399.953 108.505 406.375 105.389 406.375 101.545C406.375 97.7011 399.953 94.5851 392.032 94.5851C384.111 94.5851 377.689 97.7011 377.689 101.545C377.689 105.389 384.111 108.505 392.032 108.505Z" fill="#57B894"/>
<path d="M390.239 107.31C398.16 107.31 404.582 104.194 404.582 100.351C404.582 96.507 398.16 93.391 390.239 93.391C382.318 93.391 375.896 96.507 375.896 100.351C375.896 104.194 382.318 107.31 390.239 107.31Z" stroke="#3F3D56" stroke-miterlimit="10"/>
<path d="M396.813 134.774C404.734 134.774 411.155 131.658 411.155 127.814C411.155 123.971 404.734 120.855 396.813 120.855C388.892 120.855 382.47 123.971 382.47 127.814C382.47 131.658 388.892 134.774 396.813 134.774Z" fill="#57B894"/>
<path d="M395.02 133.58C402.941 133.58 409.363 130.464 409.363 126.62C409.363 122.776 402.941 119.661 395.02 119.661C387.099 119.661 380.677 122.776 380.677 126.62C380.677 130.464 387.099 133.58 395.02 133.58Z" stroke="#3F3D56" stroke-miterlimit="10"/>
<path d="M393.825 69.1003C401.746 69.1003 408.167 65.9843 408.167 62.1406C408.167 58.2968 401.746 55.1808 393.825 55.1808C385.903 55.1808 379.482 58.2968 379.482 62.1406C379.482 65.9843 385.903 69.1003 393.825 69.1003Z" fill="#57B894"/>
<path d="M392.032 67.9062C399.953 67.9062 406.375 64.7902 406.375 60.9465C406.375 57.1027 399.953 53.9868 392.032 53.9868C384.111 53.9868 377.689 57.1027 377.689 60.9465C377.689 64.7902 384.111 67.9062 392.032 67.9062Z" stroke="#3F3D56" stroke-miterlimit="10"/>
<path d="M357.968 64.921C365.889 64.921 372.311 61.805 372.311 57.9613C372.311 54.1176 365.889 51.0016 357.968 51.0016C350.047 51.0016 343.625 54.1176 343.625 57.9613C343.625 61.805 350.047 64.921 357.968 64.921Z" fill="#57B894"/>
<path d="M356.175 63.727C364.097 63.727 370.518 60.611 370.518 56.7673C370.518 52.9235 364.097 49.8076 356.175 49.8076C348.254 49.8076 341.833 52.9235 341.833 56.7673C341.833 60.611 348.254 63.727 356.175 63.727Z" stroke="#3F3D56" stroke-miterlimit="10"/>
<path d="M374.104 49.9952C382.025 49.9952 388.446 46.8792 388.446 43.0355C388.446 39.1917 382.025 36.0757 374.104 36.0757C366.182 36.0757 359.761 39.1917 359.761 43.0355C359.761 46.8792 366.182 49.9952 374.104 49.9952Z" fill="#57B894"/>
<path d="M372.311 48.8011C380.232 48.8011 386.653 45.6852 386.653 41.8414C386.653 37.9977 380.232 34.8817 372.311 34.8817C364.39 34.8817 357.968 37.9977 357.968 41.8414C357.968 45.6852 364.39 48.8011 372.311 48.8011Z" stroke="#3F3D56" stroke-miterlimit="10"/>
<path d="M409.363 52.9803C417.284 52.9803 423.705 49.8644 423.705 46.0206C423.705 42.1769 417.284 39.0609 409.363 39.0609C401.441 39.0609 395.02 42.1769 395.02 46.0206C395.02 49.8644 401.441 52.9803 409.363 52.9803Z" fill="#57B894"/>
<path d="M407.57 51.7863C415.491 51.7863 421.912 48.6703 421.912 44.8266C421.912 40.9829 415.491 37.8669 407.57 37.8669C399.649 37.8669 393.227 40.9829 393.227 44.8266C393.227 48.6703 399.649 51.7863 407.57 51.7863Z" stroke="#3F3D56" stroke-miterlimit="10"/>
<path d="M435.657 72.6825C443.579 72.6825 450 69.5665 450 65.7228C450 61.879 443.579 58.7631 435.657 58.7631C427.736 58.7631 421.315 61.879 421.315 65.7228C421.315 69.5665 427.736 72.6825 435.657 72.6825Z" fill="#57B894"/>
<path d="M433.865 71.4884C441.786 71.4884 448.207 68.3724 448.207 64.5287C448.207 60.6849 441.786 57.569 433.865 57.569C425.943 57.569 419.522 60.6849 419.522 64.5287C419.522 68.3724 425.943 71.4884 433.865 71.4884Z" stroke="#3F3D56" stroke-miterlimit="10"/>
<path d="M343.028 38.0545C350.949 38.0545 357.371 34.9385 357.371 31.0948C357.371 27.251 350.949 24.1351 343.028 24.1351C335.107 24.1351 328.685 27.251 328.685 31.0948C328.685 34.9385 335.107 38.0545 343.028 38.0545Z" fill="#57B894"/>
<path d="M341.235 36.8604C349.156 36.8604 355.578 33.7444 355.578 29.9007C355.578 26.0569 349.156 22.941 341.235 22.941C333.314 22.941 326.892 26.0569 326.892 29.9007C326.892 33.7444 333.314 36.8604 341.235 36.8604Z" stroke="#3F3D56" stroke-miterlimit="10"/>
<path d="M351.992 15.3672C359.913 15.3672 366.335 12.2512 366.335 8.40747C366.335 4.56372 359.913 1.44775 351.992 1.44775C344.071 1.44775 337.649 4.56372 337.649 8.40747C337.649 12.2512 344.071 15.3672 351.992 15.3672Z" fill="#57B894"/>
<path d="M350.199 14.1732C358.12 14.1732 364.542 11.0572 364.542 7.21344C364.542 3.36969 358.12 0.253723 350.199 0.253723C342.278 0.253723 335.857 3.36969 335.857 7.21344C335.857 11.0572 342.278 14.1732 350.199 14.1732Z" stroke="#3F3D56" stroke-miterlimit="10"/>
<path d="M435.06 32.0842C442.981 32.0842 449.402 28.9682 449.402 25.1244C449.402 21.2807 442.981 18.1647 435.06 18.1647C427.139 18.1647 420.717 21.2807 420.717 25.1244C420.717 28.9682 427.139 32.0842 435.06 32.0842Z" fill="#57B894"/>
<path d="M433.267 30.8901C441.188 30.8901 447.61 27.7741 447.61 23.9304C447.61 20.0866 441.188 16.9706 433.267 16.9706C425.346 16.9706 418.924 20.0866 418.924 23.9304C418.924 27.7741 425.346 30.8901 433.267 30.8901Z" stroke="#3F3D56" stroke-miterlimit="10"/>
<path d="M302.988 87.0113C310.909 87.0113 317.331 83.8954 317.331 80.0516C317.331 76.2079 310.909 73.0919 302.988 73.0919C295.067 73.0919 288.645 76.2079 288.645 80.0516C288.645 83.8954 295.067 87.0113 302.988 87.0113Z" fill="#57B894"/>
<path d="M301.195 85.8173C309.116 85.8173 315.538 82.7013 315.538 78.8575C315.538 75.0138 309.116 71.8978 301.195 71.8978C293.274 71.8978 286.853 75.0138 286.853 78.8575C286.853 82.7013 293.274 85.8173 301.195 85.8173Z" stroke="#3F3D56" stroke-miterlimit="10"/>
<path d="M352.59 83.4291C360.511 83.4291 366.932 80.3131 366.932 76.4694C366.932 72.6256 360.511 69.5096 352.59 69.5096C344.668 69.5096 338.247 72.6256 338.247 76.4694C338.247 80.3131 344.668 83.4291 352.59 83.4291Z" fill="#57B894"/>
<path d="M350.797 82.2351C358.718 82.2351 365.139 79.1191 365.139 75.2754C365.139 71.4316 358.718 68.3157 350.797 68.3157C342.876 68.3157 336.454 71.4316 336.454 75.2754C336.454 79.1191 342.876 82.2351 350.797 82.2351Z" stroke="#3F3D56" stroke-miterlimit="10"/>
<path d="M417.729 88.8024C425.65 88.8024 432.072 85.6864 432.072 81.8426C432.072 77.9989 425.65 74.8829 417.729 74.8829C409.808 74.8829 403.386 77.9989 403.386 81.8426C403.386 85.6864 409.808 88.8024 417.729 88.8024Z" fill="#57B894"/>
<path d="M415.936 87.6084C423.857 87.6084 430.279 84.4924 430.279 80.6487C430.279 76.8049 423.857 73.689 415.936 73.689C408.015 73.689 401.594 76.8049 401.594 80.6487C401.594 84.4924 408.015 87.6084 415.936 87.6084Z" stroke="#3F3D56" stroke-miterlimit="10"/>
<path d="M383.068 91.1905C390.989 91.1905 397.41 88.0746 397.41 84.2308C397.41 80.3871 390.989 77.2711 383.068 77.2711C375.146 77.2711 368.725 80.3871 368.725 84.2308C368.725 88.0746 375.146 91.1905 383.068 91.1905Z" fill="#57B894"/>
<path d="M381.275 89.9965C389.196 89.9965 395.618 86.8805 395.618 83.0367C395.618 79.193 389.196 76.077 381.275 76.077C373.354 76.077 366.932 79.193 366.932 83.0367C366.932 86.8805 373.354 89.9965 381.275 89.9965Z" stroke="#3F3D56" stroke-miterlimit="10"/>
<path d="M385.458 31.4871C393.379 31.4871 399.801 28.3711 399.801 24.5274C399.801 20.6837 393.379 17.5677 385.458 17.5677C377.537 17.5677 371.116 20.6837 371.116 24.5274C371.116 28.3711 377.537 31.4871 385.458 31.4871Z" fill="#57B894"/>
<path d="M383.665 30.2931C391.587 30.2931 398.008 27.1771 398.008 23.3334C398.008 19.4896 391.587 16.3737 383.665 16.3737C375.744 16.3737 369.323 19.4896 369.323 23.3334C369.323 27.1771 375.744 30.2931 383.665 30.2931Z" stroke="#3F3D56" stroke-miterlimit="10"/>
<path d="M323.904 68.5032C331.826 68.5032 338.247 65.3873 338.247 61.5435C338.247 57.6998 331.826 54.5838 323.904 54.5838C315.983 54.5838 309.562 57.6998 309.562 61.5435C309.562 65.3873 315.983 68.5032 323.904 68.5032Z" fill="#57B894"/>
<path d="M322.112 67.3092C330.033 67.3092 336.454 64.1932 336.454 60.3495C336.454 56.5057 330.033 53.3898 322.112 53.3898C314.19 53.3898 307.769 56.5057 307.769 60.3495C307.769 64.1932 314.19 67.3092 322.112 67.3092Z" stroke="#3F3D56" stroke-miterlimit="10"/>
<path d="M332.271 95.3697C340.192 95.3697 346.614 92.2538 346.614 88.41C346.614 84.5663 340.192 81.4503 332.271 81.4503C324.35 81.4503 317.928 84.5663 317.928 88.41C317.928 92.2538 324.35 95.3697 332.271 95.3697Z" fill="#57B894"/>
<path d="M330.478 94.1757C338.399 94.1757 344.821 91.0597 344.821 87.2159C344.821 83.3722 338.399 80.2562 330.478 80.2562C322.557 80.2562 316.135 83.3722 316.135 87.2159C316.135 91.0597 322.557 94.1757 330.478 94.1757Z" stroke="#3F3D56" stroke-miterlimit="10"/>
<g opacity="0.3">
<path d="M332.605 135.931C334.629 132.312 334.999 128.668 333.43 127.792C331.861 126.917 328.948 129.14 326.924 132.759C324.899 136.378 324.529 140.022 326.098 140.898C327.667 141.774 330.58 139.55 332.605 135.931Z" fill="#57B894"/>
<path d="M331.659 136.478C333.684 132.859 334.053 129.215 332.484 128.339C330.916 127.463 328.003 129.687 325.978 133.306C323.953 136.925 323.584 140.569 325.153 141.445C326.721 142.321 329.634 140.097 331.659 136.478Z" stroke="#3F3D56" stroke-miterlimit="10"/>
</g>
<g opacity="0.3">
<path d="M407.365 153.28C408.563 151.942 407.028 148.617 403.936 145.852C400.844 143.087 397.365 141.93 396.167 143.268C394.968 144.606 396.503 147.932 399.596 150.697C402.688 153.461 406.166 154.618 407.365 153.28Z" fill="#57B894"/>
<path d="M407.037 152.239C408.236 150.901 406.701 147.575 403.608 144.81C400.516 142.045 397.038 140.889 395.839 142.226C394.641 143.564 396.176 146.89 399.268 149.655C402.36 152.42 405.839 153.577 407.037 152.239Z" stroke="#3F3D56" stroke-miterlimit="10"/>
</g>
<g opacity="0.3">
<path d="M340.433 115.667C341.631 114.329 340.096 111.003 337.004 108.238C333.911 105.474 330.433 104.317 329.234 105.655C328.036 106.993 329.571 110.319 332.663 113.083C335.756 115.848 339.234 117.005 340.433 115.667Z" fill="#57B894"/>
<path d="M340.105 114.626C341.304 113.288 339.768 109.962 336.676 107.197C333.584 104.432 330.105 103.275 328.907 104.613C327.708 105.951 329.244 109.277 332.336 112.042C335.428 114.807 338.906 115.964 340.105 114.626Z" stroke="#3F3D56" stroke-miterlimit="10"/>
</g>
</g>
<defs>
<clipPath id="clip0_2_88">
<rect width="450" height="332" fill="white"/>
</clipPath>
</defs>
</svg>
