<svg width="450" height="318" viewBox="0 0 450 318" fill="none" xmlns="http://www.w3.org/2000/svg">
<g clip-path="url(#clip0_3_144)">
<path opacity="0.1" d="M149.606 317.821C171.521 317.821 189.286 314.975 189.286 311.463C189.286 307.952 171.521 305.105 149.606 305.105C127.692 305.105 109.926 307.952 109.926 311.463C109.926 314.975 127.692 317.821 149.606 317.821Z" fill="#6C584C"/>
<path opacity="0.1" d="M365.301 318C392.647 318 414.816 315.153 414.816 311.642C414.816 308.131 392.647 305.284 365.301 305.284C337.955 305.284 315.787 308.131 315.787 311.642C315.787 315.153 337.955 318 365.301 318Z" fill="#6C584C"/>
<path opacity="0.1" d="M5.636 137.399H46.9653V193.598H8.66168C8.55987 194.174 8.46214 194.755 8.35626 195.336H46.9653V240.659C46.896 240.639 46.835 240.615 46.7698 240.59C45.6784 240.16 44.5952 239.705 43.512 239.217L42.8197 238.904C41.7338 238.392 40.6479 237.851 39.5619 237.279C39.1832 237.08 38.8045 236.873 38.4298 236.662C32.4012 233.293 26.9245 229.024 22.1897 224.002C22.0512 223.868 21.9209 223.726 21.7825 223.596C21.1228 222.881 20.4753 222.158 19.8482 221.419L19.1559 220.606C18.4147 219.7 17.698 218.77 17.0016 217.827C16.8998 217.689 16.8021 217.551 16.6962 217.421C13.8642 213.503 11.5127 209.262 9.69196 204.786C9.63495 204.652 9.58608 204.506 9.53314 204.38C8.97388 202.944 8.47843 201.495 8.04677 200.033C7.85944 199.419 7.68027 198.814 7.52552 198.176C7.46851 197.989 7.41964 197.807 7.37485 197.624C5.06181 188.617 4.78897 179.26 4.78897 169.969C4.78897 168.884 4.78897 167.796 4.78897 166.719C4.78897 162.961 4.83376 159.179 4.89892 155.401C4.89892 154.421 4.93964 153.446 4.96 152.463C5.01701 149.969 5.09846 147.474 5.20434 144.98C5.22877 144.285 5.26135 143.594 5.298 142.904C5.298 142.506 5.31836 142.108 5.35908 141.709C5.45682 140.263 5.53826 138.829 5.636 137.399Z" fill="#6C584C"/>
<path opacity="0.1" d="M46.9653 74.8259H24.295C27.9802 69.0715 32.0067 63.5418 36.353 58.2665C39.7207 54.1389 43.2758 50.1169 46.9653 46.2411V74.8259Z" fill="#6C584C"/>
<path opacity="0.1" d="M46.9653 76.5647V135.66H5.76631C5.76631 135.489 5.79481 135.315 5.80703 135.144C5.84368 134.677 5.88033 134.21 5.92105 133.747C5.96585 133.202 6.01471 132.654 6.06765 132.121C6.12059 131.589 6.17761 130.939 6.23869 130.35C6.29977 129.761 6.35678 129.164 6.42601 128.575C6.49524 127.986 6.55632 127.397 6.62962 126.812C6.70293 126.227 6.76808 125.633 6.84545 125.048C6.90654 124.561 6.97169 124.077 7.03685 123.59C7.13051 122.903 7.22825 122.213 7.33412 121.53C7.33412 121.429 7.36263 121.323 7.37892 121.225C8.12218 116.229 9.13493 111.276 10.4127 106.389C11.7503 101.262 13.4583 96.2378 15.5234 91.3568C17.7182 86.2508 20.288 81.3134 23.2118 76.585L46.9653 76.5647Z" fill="#6C584C"/>
<path opacity="0.1" d="M56.8323 137.395V193.598H145.106V137.395H56.8323ZM56.8323 195.332V243.597C57.3373 243.702 57.8382 243.804 58.335 243.889C59.011 244.019 59.6829 244.137 60.3711 244.239C60.5014 244.259 60.6358 244.279 60.7783 244.291C61.0471 244.336 61.324 244.373 61.5928 244.409C62.2728 244.503 62.9488 244.58 63.6289 244.641C63.9506 244.673 64.2764 244.702 64.6022 244.726L65.3881 244.787C65.8157 244.819 66.2392 244.844 66.6587 244.856C66.9193 244.856 67.1799 244.88 67.4487 244.889C67.6523 244.889 67.8559 244.889 68.0677 244.889C68.2794 244.889 68.5808 244.889 68.8373 244.889C69.1875 244.889 69.5377 244.889 69.8839 244.889H70.3522C70.7024 244.889 71.0526 244.889 71.3988 244.856H71.4232C71.6635 244.856 71.9078 244.856 72.1521 244.824C72.2199 244.828 72.2879 244.828 72.3557 244.824C72.5594 244.824 72.763 244.824 72.9584 244.795H73.101L74.4652 244.689C74.9131 244.649 75.3651 244.596 75.8212 244.547L76.7497 244.438C80.527 243.91 84.2624 243.117 87.928 242.065C96.1621 239.774 104.217 236.568 112.447 234.22C123.088 231.193 134.844 229.706 145.127 233.408V195.332H56.8323ZM145.106 74.8259V0.00408052C135.442 -0.10038 125.804 1.02733 116.426 3.35983C94.0731 8.96223 74.0172 21.1136 56.8323 36.633V74.8219H61.2629V76.5566H56.8323V135.66H145.106V76.5607H79.4537V74.8259H145.106ZM258.49 49.5522C252.96 49.3572 247.463 47.6102 242.49 44.9126C232.982 39.7531 225.387 31.7862 216.9 25.0625C199.267 11.0586 177.399 2.60824 154.965 0.511912V74.8259H280.981L281.295 74.4969L258.49 49.5522ZM269.97 47.5209L282.142 60.8464V44.027C278.065 44.5307 274.494 45.7292 269.986 47.5046L269.97 47.5209ZM282.142 255.581V195.332H256.206C256.136 195.076 256.067 194.816 255.986 194.556C256.063 194.816 256.128 195.076 256.202 195.332H154.982V238.904C155.943 239.615 156.892 240.363 157.832 241.122C158.846 241.935 159.848 242.792 160.854 243.633L161.868 244.47C162.352 244.876 162.841 245.283 163.334 245.665C164.311 246.455 165.298 247.235 166.294 248.005C166.787 248.411 167.292 248.777 167.793 249.158C175.745 255.224 184.133 260.697 192.89 265.535C194.853 266.618 196.834 267.676 198.832 268.708C200.163 269.386 201.503 270.061 202.847 270.715C204.867 271.698 206.903 272.646 208.955 273.559C227.878 282.033 247.886 287.848 268.41 290.837C272.968 291.509 277.544 292.037 282.138 292.422V255.577H282.545L282.142 255.581ZM154.982 76.5607V135.66H282.158V76.5607H154.982ZM154.982 137.395V193.598H282.158V137.395H154.982ZM292.029 43.9539V62.7152L307.565 45.7089C302.418 44.8801 297.239 44.2883 292.029 43.9335V43.9539ZM292.029 137.415V193.598H415.724V137.395L292.029 137.415ZM415.272 260.042L415.708 195.332H292.029V293.068C299.997 293.401 307.976 293.307 315.933 292.783H316.072C319.873 292.545 323.656 292.198 327.421 291.743H327.507C347.595 289.411 367.238 284.182 385.821 276.22M439.575 146.65C439.111 145.557 438.626 144.472 438.133 143.399C437.213 141.368 436.24 139.394 435.238 137.419H425.587V193.598H449.988C449.976 177.688 445.94 161.438 439.587 146.629L439.575 146.65ZM425.587 195.353V251.011C432.461 244.438 438.268 236.918 442.45 228.321C447.479 217.969 449.78 206.761 449.967 195.345L425.587 195.353ZM425.587 121.039V135.664H434.334C431.688 130.629 428.772 125.74 425.599 121.018L425.587 121.039ZM341.699 54.9799C341.055 54.7361 340.412 54.4883 339.764 54.2486C332.935 51.7327 325.957 49.6405 318.869 47.984L295.096 74.0134L294.64 74.4969L294.945 74.83H379.558C367.774 66.7374 355.069 60.0674 341.711 54.9596L341.699 54.9799ZM382.038 76.581H293.764L292.029 78.1654V135.66H307.235H307.259H415.74V107.811C405.927 95.9703 394.601 85.4642 382.05 76.5607L382.038 76.581Z" fill="#6C584C"/>
<path opacity="0.1" d="M46.9653 106.372V135.66H5.76631C5.76631 135.489 5.79481 135.315 5.80703 135.144C5.84368 134.677 5.88033 134.21 5.92105 133.747C5.96585 133.202 6.01471 132.654 6.06765 132.122C6.12059 131.589 6.17761 130.939 6.23869 130.35C6.29977 129.761 6.35678 129.164 6.42601 128.575C6.49524 127.986 6.55632 127.397 6.62962 126.812C6.70293 126.227 6.76808 125.633 6.84545 125.048C6.90654 124.561 6.97169 124.077 7.03685 123.59C7.13051 122.903 7.22825 122.213 7.33412 121.53C7.33412 121.429 7.36263 121.323 7.37892 121.225C8.12218 116.229 9.13493 111.276 10.4127 106.389L46.9653 106.372Z" fill="#6C584C"/>
<path opacity="0.1" d="M5.636 137.399H46.9653V193.598H8.66168C8.55987 194.174 8.46214 194.755 8.35626 195.336H46.9653V240.659C46.896 240.639 46.835 240.615 46.7698 240.59C45.6784 240.16 44.5952 239.705 43.512 239.217L42.8197 238.904C41.7338 238.392 40.6479 237.851 39.5619 237.279C39.1832 237.08 38.8045 236.873 38.4298 236.662C32.4012 233.293 26.9245 229.024 22.1897 224.002C22.0512 223.868 21.9209 223.726 21.7825 223.596C21.1228 222.881 20.4753 222.158 19.8482 221.419L19.1559 220.606C18.4147 219.7 17.698 218.77 17.0016 217.827C16.8998 217.689 16.8021 217.551 16.6962 217.421C13.8642 213.503 11.5127 209.262 9.69196 204.786C9.63495 204.652 9.58608 204.506 9.53314 204.38C8.97388 202.944 8.47843 201.495 8.04677 200.033C7.85944 199.419 7.68027 198.814 7.52552 198.176C7.46851 197.989 7.41964 197.807 7.37485 197.624C5.06181 188.617 4.78897 179.26 4.78897 169.969C4.78897 168.884 4.78897 167.796 4.78897 166.719C4.78897 162.961 4.83376 159.179 4.89892 155.401C4.89892 154.421 4.93964 153.446 4.96 152.463C5.01701 149.969 5.09846 147.474 5.20434 144.98C5.22877 144.285 5.26135 143.594 5.298 142.904C5.298 142.506 5.31836 142.108 5.35908 141.709C5.45682 140.263 5.53826 138.829 5.636 137.399Z" fill="#6C584C"/>
<path opacity="0.1" d="M87.9077 85.0232V135.66H56.8323V85.0232H61.2629V67.8788H79.4496V85.0232H87.9077Z" fill="#6C584C"/>
<path opacity="0.1" d="M87.9077 137.395H56.8364V193.593H87.9077V137.395Z" fill="#6C584C"/>
<path opacity="0.1" d="M56.8323 195.336H87.9077V242.057C84.242 243.108 80.5066 243.899 76.7293 244.425L75.8009 244.539C75.3448 244.592 74.8927 244.637 74.4448 244.681C73.9969 244.726 73.5326 244.759 73.0806 244.787H72.9381C72.7426 244.787 72.5308 244.811 72.3395 244.815H72.1318C71.8874 244.815 71.6431 244.84 71.3988 244.848C71.0526 244.868 70.7065 244.872 70.3522 244.876C70.2015 244.876 70.059 244.876 69.9083 244.876C69.5581 244.876 69.212 244.876 68.8617 244.876H68.0921C67.8844 244.876 67.6849 244.876 67.469 244.876L66.6831 244.848C66.2759 244.848 65.8361 244.803 65.4125 244.775L64.6307 244.718L63.6574 244.629C62.9733 244.568 62.2932 244.49 61.6213 244.397L60.8068 244.283L60.3996 244.226C59.7195 244.121 59.0476 244.007 58.3635 243.877C57.8626 243.792 57.3658 243.686 56.8608 243.584L56.8323 195.336Z" fill="#6C584C"/>
<path opacity="0.1" d="M282.158 79.043H256.535V135.656H282.158V79.043Z" fill="#6C584C"/>
<path opacity="0.1" d="M282.162 137.395V193.597H154.982V169.356H222.724V183.656H256.535V137.395H282.162Z" fill="#6C584C"/>
<path opacity="0.1" d="M282.565 255.594H282.158V292.462C277.57 292.075 272.996 291.548 268.435 290.882C247.901 287.883 227.883 282.055 208.955 273.567C203.49 271.113 198.137 268.434 192.894 265.531C184.138 260.691 175.748 255.217 167.793 249.154C165.795 247.627 163.823 246.064 161.876 244.466C160.528 243.357 159.188 242.219 157.832 241.114C156.892 240.355 155.943 239.607 154.982 238.892V195.336H256.198C256.128 195.076 256.059 194.816 255.986 194.56C256.063 194.816 256.136 195.076 256.206 195.336H282.158V255.569C282.297 255.573 282.431 255.586 282.565 255.594Z" fill="#6C584C"/>
<path opacity="0.1" d="M348.984 74.8259H332.288V69.6501H339.772V54.2323C340.421 54.4679 341.067 54.7103 341.711 54.9595V69.6501H348.984V74.8259Z" fill="#6C584C"/>
<path opacity="0.1" d="M389.209 135.66H307.243C307.243 135.66 307.243 135.66 307.272 135.68L307.235 135.66H292.029V79.047H296.338V120.892H316.027V96.1101H332.292V76.5647H348.988V96.1264H365.252V120.909H389.209V135.66Z" fill="#6C584C"/>
<path opacity="0.1" d="M292.029 137.395V193.597H389.209V137.395H292.029ZM415.589 259.754L415.724 215.268H389.209V195.361H292.029V293.067C299.997 293.401 307.976 293.306 315.933 292.783H316.072C319.873 292.545 323.656 292.198 327.421 291.743H327.507C347.595 289.411 367.238 284.182 385.821 276.22" fill="#6C584C"/>
<path opacity="0.1" d="M427.313 195.336H449.984C449.784 206.748 447.487 217.957 442.462 228.309C438.28 236.91 432.469 244.43 425.603 250.999V215.247H427.313V195.336Z" fill="#6C584C"/>
<path opacity="0.1" d="M449.996 193.597H427.313V146.629H439.587C445.94 161.438 449.976 177.688 449.996 193.597Z" fill="#6C584C"/>
<path opacity="0.1" d="M282.162 94.7816H268.435V112.531H282.162V94.7816Z" fill="#6C584C"/>
<path opacity="0.1" d="M282.162 131.573H268.435V135.66H282.162V131.573Z" fill="#6C584C"/>
<path opacity="0.1" d="M282.162 137.395H268.435V149.319H282.162V137.395Z" fill="#6C584C"/>
<path opacity="0.1" d="M282.162 168.364H268.435V186.114H282.162V168.364Z" fill="#6C584C"/>
<path opacity="0.1" d="M282.162 205.156H268.435V222.905H282.162V205.156Z" fill="#6C584C"/>
<path opacity="0.1" d="M282.158 255.569C282.297 255.569 282.431 255.569 282.565 255.594H282.158V259.717H268.435V241.947H282.158V255.569Z" fill="#6C584C"/>
<path opacity="0.1" d="M282.158 278.73V292.442C277.57 292.055 272.996 291.528 268.435 290.862V278.73H282.158Z" fill="#6C584C"/>
<path opacity="0.1" d="M213.814 192.293H154.982V193.598H213.814V192.293Z" fill="#6C584C"/>
<path opacity="0.1" d="M213.814 195.332H154.982V200.329H213.814V195.332Z" fill="#6C584C"/>
<path opacity="0.1" d="M213.814 216.71H154.982V224.746H213.814V216.71Z" fill="#6C584C"/>
<path opacity="0.1" d="M213.809 241.126V249.162H167.793C165.795 247.64 163.821 246.077 161.872 244.474C160.524 243.365 159.188 242.227 157.828 241.126H213.809Z" fill="#6C584C"/>
<path opacity="0.1" d="M213.809 265.539V273.567H208.951C203.492 271.11 198.139 268.43 192.894 265.527L213.809 265.539Z" fill="#6C584C"/>
<path opacity="0.1" d="M327.519 142.843H315.937V154.397H327.519V142.843Z" fill="#6C584C"/>
<path opacity="0.1" d="M76.7578 89.0087H65.1764V100.563H76.7578V89.0087Z" fill="#6C584C"/>
<path opacity="0.1" d="M76.7578 115.847H65.1764V127.401H76.7578V115.847Z" fill="#6C584C"/>
<path opacity="0.1" d="M76.7578 142.684H65.1764V154.239H76.7578V142.684Z" fill="#6C584C"/>
<path opacity="0.1" d="M76.7578 169.518H65.1764V181.072H76.7578V169.518Z" fill="#6C584C"/>
<path opacity="0.1" d="M76.7578 196.356H65.1764V207.91H76.7578V196.356Z" fill="#6C584C"/>
<path opacity="0.1" d="M76.7578 223.194H65.1764V234.748H76.7578V223.194Z" fill="#6C584C"/>
<path opacity="0.1" d="M371.731 142.843H360.15V154.397H371.731V142.843Z" fill="#6C584C"/>
<path opacity="0.1" d="M327.519 171.342H315.937V182.896H327.519V171.342Z" fill="#6C584C"/>
<path opacity="0.1" d="M371.731 171.342H360.15V182.896H371.731V171.342Z" fill="#6C584C"/>
<path opacity="0.1" d="M327.519 199.838H315.937V211.392H327.519V199.838Z" fill="#6C584C"/>
<path opacity="0.1" d="M371.731 199.838H360.15V211.392H371.731V199.838Z" fill="#6C584C"/>
<path opacity="0.1" d="M327.519 228.337H315.937V239.891H327.519V228.337Z" fill="#6C584C"/>
<path opacity="0.1" d="M371.731 228.337H360.15V239.891H371.731V228.337Z" fill="#6C584C"/>
<path opacity="0.1" d="M327.519 256.837H315.937V268.391H327.519V256.837Z" fill="#6C584C"/>
<path opacity="0.1" d="M371.731 256.837H360.15V268.391H371.731V256.837Z" fill="#6C584C"/>
<path opacity="0.1" d="M315.937 292.783V285.332H327.515V291.723L315.937 292.783Z" fill="#6C584C"/>
<path opacity="0.1" d="M7.33005 121.217V127.827H46.9653V121.217H7.33005ZM11.2801 127.413H8.04677V121.624H11.3046L11.2801 127.413ZM15.2261 127.413H11.9683V121.624H15.2261V127.413ZM19.164 127.413H15.9062V121.624H19.164V127.413ZM23.11 127.413H19.8563V121.624H23.1141L23.11 127.413ZM27.052 127.413H23.7942V121.624H27.052V127.413ZM30.998 127.413H27.7402V121.624H30.998V127.413ZM34.944 127.413H31.6862V121.624H34.944V127.413ZM38.8859 127.413H35.6281V121.624H38.8859V127.413ZM42.8279 127.413H39.5701V121.624H42.8279V127.413ZM46.7698 127.413H43.512V121.624H46.7698V127.413Z" fill="#6C584C"/>
<path opacity="0.1" d="M7.33005 140.45V147.06H46.9653V140.45H7.33005ZM11.2801 146.641H8.04677V140.868H11.3046L11.2801 146.641ZM15.2261 146.641H11.9683V140.868H15.2261V146.641ZM19.164 146.641H15.9062V140.868H19.164V146.641ZM23.11 146.641H19.8563V140.868H23.1141L23.11 146.641ZM27.052 146.641H23.7942V140.868H27.052V146.641ZM30.998 146.641H27.7402V140.868H30.998V146.641ZM34.944 146.641H31.6862V140.868H34.944V146.641ZM38.8859 146.641H35.6281V140.868H38.8859V146.641ZM42.8279 146.641H39.5701V140.868H42.8279V146.641ZM46.7698 146.641H43.512V140.868H46.7698V146.641Z" fill="#6C584C"/>
<path opacity="0.1" d="M7.33005 159.691V166.313H46.9653V159.691H7.33005ZM11.2801 165.882H8.04677V160.105H11.3046L11.2801 165.882ZM15.2261 165.882H11.9683V160.105H15.2261V165.882ZM19.164 165.882H15.9062V160.105H19.164V165.882ZM23.11 165.882H19.8563V160.105H23.1141L23.11 165.882ZM27.052 165.882H23.7942V160.105H27.052V165.882ZM30.998 165.882H27.7402V160.105H30.998V165.882ZM34.944 165.882H31.6862V160.105H34.944V165.882ZM38.8859 165.882H35.6281V160.105H38.8859V165.882ZM42.8279 165.882H39.5701V160.105H42.8279V165.882ZM46.7698 165.882H43.512V160.105H46.7698V165.882Z" fill="#6C584C"/>
<path opacity="0.1" d="M7.33005 178.931V185.533H46.9653V178.931H7.33005ZM11.2801 185.123H8.04677V179.342H11.3046L11.2801 185.123ZM15.2261 185.123H11.9683V179.342H15.2261V185.123ZM19.164 185.123H15.9062V179.342H19.164V185.123ZM23.11 185.123H19.8563V179.342H23.1141L23.11 185.123ZM27.052 185.123H23.7942V179.342H27.052V185.123ZM30.998 185.123H27.7402V179.342H30.998V185.123ZM34.944 185.123H31.6862V179.342H34.944V185.123ZM38.8859 185.123H35.6281V179.342H38.8859V185.123ZM42.8279 185.123H39.5701V179.342H42.8279V185.123ZM46.7698 185.123H43.512V179.342H46.7698V185.123Z" fill="#6C584C"/>
<path opacity="0.1" d="M7.50109 198.168C7.6599 198.79 7.83908 199.411 8.0264 200.025V198.582H11.2842V204.359H9.54128C9.59422 204.494 9.64716 204.64 9.7001 204.766H46.9653V198.168H7.50109ZM15.2384 204.359H11.9806V198.582H15.2384V204.359ZM19.1762 204.359H15.9184V198.582H19.1762V204.359ZM23.1222 204.359H19.8563V198.582H23.1141L23.1222 204.359ZM27.0642 204.359H23.8064V198.582H27.0642V204.359ZM31.0102 204.359H27.7524V198.582H31.0102V204.359ZM34.9562 204.359H31.6984V198.582H34.9562V204.359ZM38.8981 204.359H35.6403V198.582H38.8981V204.359ZM42.8401 204.359H39.5823V198.582H42.8401V204.359ZM46.782 204.359H43.5242V198.582H46.782V204.359Z" fill="#6C584C"/>
<path opacity="0.1" d="M16.7044 217.409C16.8062 217.539 16.9039 217.685 17.0098 217.815H19.164V220.59C19.3961 220.866 19.6242 221.142 19.8604 221.402V217.799H23.1182V223.596H21.7988C21.9291 223.73 22.0553 223.872 22.206 224.002H46.9775V217.409H16.7044ZM27.052 223.596H23.7942V217.823H27.052V223.596ZM30.998 223.596H27.7402V217.823H30.998V223.596ZM34.944 223.596H31.6862V217.823H34.944V223.596ZM38.8859 223.596H35.6281V217.823H38.8859V223.596ZM42.8279 223.596H39.5701V217.823H42.8279V223.596ZM46.7698 223.596H43.512V217.823H46.7698V223.596Z" fill="#6C584C"/>
<path opacity="0.1" d="M38.4461 236.645C38.8167 236.857 39.1954 237.052 39.5782 237.263V237.06H42.836V238.888L43.5283 239.209V237.06H46.7861V240.574C46.8486 240.605 46.9141 240.629 46.9816 240.647V236.645H38.4461Z" fill="#6C584C"/>
<path opacity="0.1" d="M307.243 135.66H307.268H307.243ZM282.158 255.565H282.565H282.158ZM255.986 194.556C256.063 194.816 256.128 195.076 256.202 195.332C256.136 195.076 256.067 194.816 255.986 194.556ZM307.243 135.648H307.268H307.243ZM61.2792 74.8137V76.5485H79.47V74.8137H61.2792ZM282.158 255.565H282.565H282.158ZM255.986 194.556C256.063 194.816 256.128 195.076 256.202 195.332C256.136 195.076 256.067 194.816 255.986 194.556ZM307.243 135.648H307.268H307.243ZM282.158 255.553H282.565H282.158ZM255.986 194.556C256.063 194.816 256.128 195.076 256.202 195.332C256.136 195.076 256.067 194.816 255.986 194.556Z" fill="#6C584C"/>
<path d="M187.975 154.247C187.975 154.247 186.371 154.023 186.371 151.691C186.371 149.359 185.222 145.004 185.222 145.004C185.222 144.984 184.229 137.419 182.856 136.217C181.484 135.014 179.721 127.953 179.721 127.953C179.721 127.953 179.419 124.122 178.804 123.297C178.189 122.473 177.359 120.454 176.133 117.573C174.907 114.693 169.797 112.698 169.797 112.698C169.797 112.698 160.557 107.352 157.938 105.609C157.7 105.465 157.478 105.298 157.274 105.109C156.818 104.512 154.831 104.5 154.831 104.5C154.623 103.191 154.424 101.688 154.359 100.327C154.359 100.181 154.359 100.035 154.338 99.8884C157.258 98.1666 159.457 95.4518 160.532 92.2425C160.581 92.0881 160.622 91.9256 160.667 91.7712C160.842 91.7137 161.003 91.6205 161.139 91.4973C161.276 91.3742 161.385 91.224 161.461 91.0562C161.697 90.5321 161.701 89.9187 161.994 89.4312C162.336 88.8543 162.988 88.5455 163.501 88.1108C164.796 87.0139 165.13 85.1654 165.069 83.4834C165.028 82.1224 164.808 80.7493 164.894 79.3964L164.918 79.0551C164.942 78.852 164.971 78.6489 165.008 78.4539C165.207 77.4463 165.643 76.4957 165.887 75.4963C166.132 74.4968 166.156 73.3715 165.586 72.5102C164.751 71.2467 163.012 70.9948 161.485 70.8648C159.754 70.7186 158.207 70.9095 157.099 69.4754C156.581 68.7259 155.998 68.023 155.356 67.375C155.128 67.1638 152.913 65.815 152.913 65.7256C150.751 64.7265 148.3 64.539 146.011 65.1974C144.862 65.5306 143.779 66.075 142.614 66.3472C140.102 66.9403 137.21 66.2984 135.077 67.7325C133.887 68.5451 133.175 69.837 132.507 71.0964C131.964 72.1337 131.413 73.1697 130.854 74.2043C129.954 75.9066 129.037 77.6373 128.659 79.5223C128.579 79.9325 128.53 80.3481 128.512 80.7655V80.7858C128.512 80.9362 128.512 81.0865 128.512 81.2368V81.4277C128.512 81.5699 128.512 81.7081 128.537 81.834C128.561 81.9599 128.557 82.0006 128.569 82.0859C128.581 82.1712 128.602 82.3621 128.626 82.4921C128.651 82.6221 128.699 82.8497 128.748 83.0284C128.769 83.1056 128.797 83.1787 128.822 83.2519C128.862 83.39 128.911 83.5241 128.964 83.6581C128.993 83.7272 129.021 83.8003 129.054 83.8694C129.115 84.0116 129.188 84.1497 129.261 84.2757C129.294 84.3325 129.318 84.3853 129.351 84.4382C129.465 84.6271 129.59 84.8089 129.726 84.9825C130.597 86.0673 131.88 86.7579 132.829 87.7736C132.829 87.8142 132.829 87.8548 132.829 87.8914C132.829 88.0052 132.829 88.1148 132.829 88.2286C132.879 90.4937 133.483 92.7123 134.589 94.6913C135.695 96.6703 137.269 98.3498 139.173 99.5837C139.173 99.7381 139.194 99.8965 139.202 100.051C139.281 101.257 139.266 102.467 139.157 103.671C138.991 103.476 138.784 103.321 138.55 103.217C138.316 103.113 138.061 103.062 137.805 103.069C137.63 103.061 137.455 103.076 137.284 103.114L137.247 103.086V103.122C136.351 103.342 135.248 104.272 134.193 106.917C134.193 106.917 130.984 110.524 128.541 110.374C126.097 110.224 119.911 114.128 119.911 114.128C119.911 114.128 113.876 118.036 112.581 122.018C111.858 124.275 110.99 126.485 109.983 128.632L102.523 143.968L101.147 156.136C101.147 156.136 101.908 161.547 101.757 162.372C101.607 163.197 104.889 170.635 104.889 170.635C104.889 170.635 115.733 189.645 120.164 190.62L120.482 190.396C120.671 190.495 120.872 190.57 121.08 190.62L121.992 189.978C122.047 190.693 122.024 191.412 121.923 192.123C121.312 194 122.151 206.249 123.218 208.65C124.285 211.051 123.906 242.532 123.906 242.532L123.756 245.311C123.756 245.311 123.756 245.4 123.792 245.555L123.756 246.213L123.866 246.27C123.98 247.151 123.943 248.046 123.756 248.915C123.373 250.133 123.218 253.579 123.218 253.579C123.218 253.579 120.168 273.031 121.614 276.939C123.059 280.847 124.289 285.129 124.289 285.129C124.289 285.129 125.816 290.004 124.362 290.837C122.909 291.67 118.775 293.068 119.626 295.099C120.4 296.976 123.336 302.005 123.772 302.741L123.735 303.127L123.137 309.598C123.234 310.453 123.466 311.287 123.825 312.069C124.481 313.478 125.755 314.941 128.178 314.782C128.585 314.754 129.058 314.705 129.514 314.644C133.949 314.051 139.409 312.077 139.409 312.077C139.126 311.897 138.866 311.683 138.636 311.439C138.418 311.228 138.245 310.975 138.128 310.696C138.011 310.417 137.952 310.116 137.956 309.814C138.021 308.636 135.81 303.021 135.26 301.64C135.174 301.441 135.129 301.327 135.129 301.327C135.129 301.327 140.171 296.07 139.332 291.41C139.332 291.41 133.753 288.16 135.59 286.376C137.426 284.593 140.708 279.47 140.708 279.47C140.708 279.47 140.859 260.314 140.708 257.454C140.551 255.469 140.646 253.472 140.989 251.511C141.051 251.214 141.124 250.926 141.201 250.641C143.741 251.02 146.305 251.214 148.873 251.222C149.81 251.222 150.763 251.222 151.724 251.165C151.724 251.436 151.736 251.729 151.761 252.043C151.972 256.788 152.367 265.108 152.689 268.2C153.145 272.632 155.666 284.577 155.666 284.577C155.666 284.577 150.857 287.656 156.505 295.245C156.505 295.245 156.505 297.995 156.13 298.394C155.73 299.695 155.408 301.019 155.165 302.359C154.929 303.789 154.831 305.235 155.214 305.987C156.13 307.782 161.628 307.636 161.628 307.636L161.762 307.612C162.8 307.505 163.849 307.604 164.848 307.905C165.847 308.206 166.776 308.701 167.581 309.363C169.67 311.037 177.599 310.301 181.891 309.769C183.573 309.558 184.697 309.363 184.697 309.363C184.751 309.173 184.771 308.975 184.754 308.778C184.709 307.726 183.882 305.418 178.279 303.358C178.279 303.358 173.01 299.824 173.083 296.744H172.973H172.362C172.806 296.72 173.091 296.744 173.091 296.744C173.091 296.744 171.026 289.228 171.869 288.619C172.712 288.01 170.187 279.681 170.187 279.681C170.187 279.681 168.742 265.706 168.664 264.726C168.668 263.886 168.795 263.051 169.043 262.248L168.664 254.586C168.664 254.586 168.591 252.039 168.664 251.21C168.652 250.491 168.594 249.773 168.489 249.061C168.453 248.776 168.416 248.48 168.375 248.187C170.35 247.688 171.633 247.225 171.633 247.225L171.405 220.553C173.083 217.303 173.392 210.173 173.384 205.115C173.384 201.865 173.238 199.46 173.238 199.46L175.53 195.726C175.53 195.726 176.06 191.257 175.221 190.278C174.85 189.836 175.017 189.376 175.323 188.999C175.481 188.873 175.649 188.759 175.823 188.657C175.823 188.657 175.799 188.621 175.771 188.568C175.931 188.435 176.101 188.314 176.28 188.206C176.28 188.206 175.465 186.947 176.194 186.415C176.878 186.878 177.489 187.227 177.953 187.512C177.921 187.808 177.888 187.979 177.888 187.979L178.084 187.573C178.532 187.825 178.804 187.979 178.804 187.979C178.804 187.979 182.396 180.841 182.319 179.789C182.241 178.736 184.762 174.304 184.762 174.304C184.762 174.304 185.067 171.976 186.444 171.001C187.82 170.026 187.511 162.961 187.511 162.961C187.511 162.961 187.894 159.28 188.81 157.777C189.726 156.274 187.975 154.247 187.975 154.247ZM119.252 151.114L119.321 152.817C118.914 152.163 118.621 151.691 118.621 151.691L119.252 151.114Z" fill="url(#paint0_linear_3_144)"/>
<path d="M179 184.895L178.12 188.633C178.12 188.633 171.075 185.046 169.805 180.487C168.534 175.929 171.93 174.198 171.93 174.198L178.495 176.973L179 184.895Z" fill="white"/>
<path opacity="0.1" d="M179 184.895L178.12 188.633C178.12 188.633 171.075 185.046 169.805 180.487C168.534 175.929 171.93 174.198 171.93 174.198L178.495 176.973L179 184.895Z" fill="black"/>
<path d="M139.462 312.101C139.462 312.101 132.947 314.49 128.467 314.79C126.089 314.949 124.839 313.495 124.195 312.093C123.844 311.314 123.617 310.484 123.524 309.635L124.106 303.196L124.415 299.767L133.932 297.301L135.28 301.412L135.406 301.725C135.948 303.098 138.119 308.684 138.053 309.85C138.051 310.149 138.108 310.445 138.223 310.721C138.338 310.996 138.507 311.246 138.721 311.455C138.94 311.701 139.189 311.918 139.462 312.101Z" fill="white"/>
<path d="M183.968 308.827C183.984 309.022 183.965 309.219 183.911 309.408C183.911 309.408 169.976 311.727 167.125 309.408C166.321 308.73 165.385 308.227 164.375 307.932C163.365 307.637 162.304 307.555 161.261 307.693C161.261 307.693 155.869 307.839 154.97 306.068C154.595 305.325 154.693 303.882 154.925 302.46C155.162 301.128 155.477 299.811 155.869 298.516L156.085 298.345L157.368 297.317L172.387 296.874H172.501C172.427 299.938 177.599 303.452 177.599 303.452C183.092 305.483 183.903 307.778 183.968 308.827Z" fill="white"/>
<path opacity="0.1" d="M183.968 308.826C183.982 309.022 183.962 309.219 183.907 309.407C183.907 309.407 169.976 311.727 167.125 309.407C166.322 308.73 165.386 308.228 164.377 307.933C163.368 307.638 162.308 307.556 161.265 307.693C161.265 307.693 155.869 307.839 154.974 306.068C154.599 305.32 154.693 303.882 154.925 302.46C157.002 302.668 160.28 303.183 161.567 304.414C163.513 306.287 166.812 308.156 168.836 308.302C170.42 308.404 179.896 308.705 183.968 308.826Z" fill="black"/>
<path opacity="0.1" d="M139.462 312.101C139.462 312.101 132.947 314.49 128.467 314.79C126.089 314.949 124.839 313.494 124.2 312.089C125.857 312.645 128.158 313.23 129.367 312.694C130.801 312.06 135.883 311.65 138.733 311.475C138.95 311.712 139.195 311.922 139.462 312.101Z" fill="black"/>
<path d="M149.13 119.592C143.755 117.508 136.84 110.622 138.566 107.404C138.95 106.592 139.178 105.716 139.238 104.82C139.349 103.605 139.366 102.382 139.287 101.164C139.166 99.1689 138.926 97.1828 138.566 95.2163C138.566 95.2163 155.348 95.5941 154.371 98.0602C154.086 98.7833 154.041 100.039 154.118 101.444C154.196 102.85 154.399 104.439 154.611 105.783C154.904 107.628 155.198 109.033 155.198 109.033C155.198 109.033 154.171 110.468 153.569 110.545C152.966 110.622 156.843 122.562 149.13 119.592Z" fill="#CF6F80"/>
<path opacity="0.1" d="M135.394 301.725L135.268 301.863C130.251 295.81 124.183 303.354 124.183 303.354L124.094 303.196L124.403 299.767L133.92 297.301L135.268 301.412L135.394 301.725Z" fill="black"/>
<path opacity="0.1" d="M172.505 297.301C172.505 297.301 168.84 297.224 166.885 298.946C164.93 300.669 155.483 299.32 155.89 298.946C156.01 298.761 156.083 298.549 156.102 298.329L157.384 297.301L172.403 296.858C172.46 297.13 172.505 297.301 172.505 297.301Z" fill="black"/>
<path d="M141.637 249.764C141.364 250.437 141.157 251.135 141.018 251.848C140.678 253.8 140.584 255.787 140.737 257.763C140.888 260.607 140.737 279.665 140.737 279.665C140.737 279.665 137.516 284.747 135.72 286.539C133.924 288.33 139.385 291.548 139.385 291.548C140.199 296.18 135.264 301.412 135.264 301.412C130.247 295.359 124.179 302.907 124.179 302.907C124.179 302.907 120.881 297.22 120.058 295.188C119.236 293.157 123.279 291.751 124.7 290.927C126.122 290.102 124.631 285.239 124.631 285.239C124.631 285.239 123.43 280.977 122.005 277.089C120.579 273.201 123.577 253.847 123.577 253.847C123.577 253.847 123.731 250.41 124.102 249.211C124.289 248.346 124.326 247.456 124.212 246.579C124.187 246.282 124.159 246.034 124.138 245.868C124.118 245.701 124.102 245.624 124.102 245.624L124.159 245.526L126.195 241.74C126.195 241.74 142.614 247.379 141.637 249.764Z" fill="#6C584C"/>
<path d="M172.505 296.854C172.505 296.854 168.84 296.777 166.885 298.479C164.93 300.181 155.483 298.853 155.89 298.479C156.297 298.105 156.264 295.339 156.264 295.339C150.722 287.79 155.45 284.727 155.45 284.727C155.45 284.727 152.974 272.844 152.526 268.436C152.213 265.356 151.826 257.081 151.618 252.356C151.528 250.324 151.475 248.927 151.475 248.927L156.004 248.017L156.586 247.899L167.508 245.713C167.508 245.713 167.809 247.745 168.013 249.406C168.114 250.116 168.172 250.831 168.184 251.547C168.111 252.36 168.184 254.903 168.184 254.903L168.555 262.529C168.312 263.328 168.188 264.159 168.184 264.995C168.257 265.966 169.678 279.868 169.678 279.868C169.678 279.868 172.15 288.164 171.307 288.761C170.464 289.358 172.505 296.854 172.505 296.854Z" fill="#6C584C"/>
<path opacity="0.1" d="M154.371 98.0602C154.086 98.7833 154.041 100.039 154.118 101.444C151.871 102.795 149.286 103.485 146.663 103.436C144.039 103.387 141.483 102.601 139.287 101.168C139.166 99.1716 138.926 97.1841 138.566 95.2163C138.566 95.2163 155.348 95.586 154.371 98.0602Z" fill="black"/>
<path d="M160.858 89.0818C160.861 90.5458 160.63 92.0009 160.174 93.3923C159.154 96.5098 157.061 99.1672 154.267 100.895C151.473 102.622 148.157 103.309 144.904 102.833C141.652 102.357 138.673 100.749 136.494 98.2936C134.314 95.8383 133.075 92.6935 132.996 89.415C132.996 89.3012 132.996 89.1956 132.996 89.0818C132.964 87.2364 133.301 85.4032 133.987 83.6891C134.673 81.975 135.694 80.4143 136.991 79.0981C138.288 77.7819 139.835 76.7365 141.541 76.0229C143.247 75.3093 145.079 74.9418 146.929 74.9418C148.779 74.9418 150.61 75.3093 152.317 76.0229C154.023 76.7365 155.569 77.7819 156.866 79.0981C158.163 80.4143 159.185 81.975 159.871 83.6891C160.557 85.4032 160.894 87.2364 160.862 89.0818H160.858Z" fill="#CF6F80"/>
<path opacity="0.1" d="M149.13 119.592C143.755 117.508 136.84 110.622 138.566 107.404C138.95 106.592 139.178 105.716 139.238 104.82L146.597 110.853L151.15 114.579L154.611 105.787C154.904 107.632 155.198 109.037 155.198 109.037C155.198 109.037 154.171 110.472 153.569 110.549C152.966 110.626 156.843 122.562 149.13 119.592Z" fill="black"/>
<path d="M168.16 146.256L162.014 249.244L154 249.768L133.248 190.051L136.653 119.154L137.369 104.175L146.597 111.735L151.154 115.461L154.717 106.413L161.343 112.174L168.16 146.256Z" fill="#6C584C"/>
<path opacity="0.1" d="M141.637 249.764C141.364 250.437 141.157 251.135 141.018 251.848C135.186 250.95 129.523 249.184 124.216 246.611L124.106 246.554L124.143 245.9L124.163 245.559L126.199 241.772C126.199 241.772 142.614 247.379 141.637 249.764Z" fill="black"/>
<path opacity="0.1" d="M156.098 251.864C154.607 252.117 153.103 252.288 151.594 252.376C151.504 250.345 151.451 248.947 151.451 248.947L155.979 248.037L156.098 251.864Z" fill="black"/>
<path opacity="0.1" d="M167.989 249.426C165.093 250.178 160.622 251.023 156.619 250.495L156.562 247.919L167.484 245.734C167.484 245.734 167.785 247.745 167.989 249.426Z" fill="black"/>
<path opacity="0.1" d="M156.545 250.966C139.849 253.81 124.558 245.656 124.558 245.656L124.705 242.894C124.705 242.894 125.083 211.575 124.033 209.174C122.982 206.773 122.163 194.597 122.758 192.728C123.353 190.859 120.587 162.835 120.587 162.835L120.14 151.46L103.745 144.834L111.075 129.59C112.065 127.453 112.916 125.255 113.624 123.009C114.899 119.052 120.816 115.164 120.816 115.164C120.816 115.164 126.883 111.28 129.282 111.426C131.68 111.573 134.824 107.989 134.824 107.989C137.145 102.086 139.247 104.76 139.247 104.76C139.247 105.04 139.247 104.76 139.133 105.633C138.318 112.113 152.302 132.589 152.502 132.95L153.833 165.313L155.181 206.269L156.545 250.966Z" fill="black"/>
<path d="M156.098 250.966C139.401 253.81 124.106 245.656 124.106 245.656L124.257 242.894C124.257 242.894 124.635 211.575 123.581 209.174C122.526 206.773 121.711 194.597 122.31 192.728C122.909 190.859 120.14 162.835 120.14 162.835L119.688 151.46L103.284 144.809L110.615 129.566C111.602 127.428 112.454 125.23 113.164 122.985C114.434 119.028 120.355 115.14 120.355 115.14C120.355 115.14 126.423 111.256 128.818 111.402C131.212 111.548 134.36 107.965 134.36 107.965C136.685 102.062 139.247 104.735 139.247 104.735C139.247 105.015 139.002 105.141 139.133 105.609C140.924 111.894 151.854 132.564 152.054 132.926L153.402 165.289L154.75 206.245L156.098 250.966Z" fill="white"/>
<path opacity="0.1" d="M151.598 133.848C149.802 133.101 140.289 122.266 140.289 122.266V119.8C139.943 118.987 137.886 119.483 136.217 120.051L136.934 105.072L137.748 105.747C139.532 112.028 151.39 133.487 151.598 133.848Z" fill="black"/>
<path d="M152.05 132.95C150.25 132.203 140.737 121.368 140.737 121.368V118.902C140.391 118.089 138.334 118.585 136.665 119.154L137.386 104.175L138.2 104.849C139.988 111.13 151.85 132.593 152.05 132.95Z" fill="white"/>
<path opacity="0.1" d="M124.558 186.988C124.782 186.988 136.168 185.793 136.168 185.793C136.168 185.793 143.062 199.318 142.61 202.609C142.158 205.899 141.34 208.812 138.566 208.296C135.793 207.78 123.642 208.703 123.642 208.703L124.558 186.988Z" fill="black"/>
<path d="M124.106 186.09C124.33 186.09 135.716 184.895 135.716 184.895C135.716 184.895 142.606 198.424 142.158 201.711C141.71 204.997 140.884 207.914 138.114 207.398C135.345 206.882 123.19 207.805 123.19 207.805L124.106 186.09Z" fill="white"/>
<path d="M132.686 179.74C132.686 179.74 143.136 185.342 143.359 187.053C143.583 188.763 138.041 186.305 136.844 186.009C136.056 185.819 135.254 185.694 134.445 185.635L126.46 185.85L132.686 179.74Z" fill="#CF6F80"/>
<path opacity="0.1" d="M148.682 134.547C149.289 134.547 149.781 134.056 149.781 133.45C149.781 132.844 149.289 132.353 148.682 132.353C148.075 132.353 147.582 132.844 147.582 133.45C147.582 134.056 148.075 134.547 148.682 134.547Z" fill="black"/>
<path d="M148.682 134.1C149.289 134.1 149.781 133.609 149.781 133.003C149.781 132.397 149.289 131.906 148.682 131.906C148.075 131.906 147.582 132.397 147.582 133.003C147.582 133.609 148.075 134.1 148.682 134.1Z" fill="#3F3D56"/>
<path opacity="0.1" d="M150.706 182.031C151.313 182.031 151.805 181.54 151.805 180.934C151.805 180.329 151.313 179.837 150.706 179.837C150.099 179.837 149.606 180.329 149.606 180.934C149.606 181.54 150.099 182.031 150.706 182.031Z" fill="black"/>
<path d="M150.706 181.58C151.313 181.58 151.805 181.089 151.805 180.483C151.805 179.877 151.313 179.386 150.706 179.386C150.099 179.386 149.606 179.877 149.606 180.483C149.606 181.089 150.099 181.58 150.706 181.58Z" fill="#3F3D56"/>
<path opacity="0.1" d="M149.777 158.289C150.385 158.289 150.877 157.798 150.877 157.192C150.877 156.586 150.385 156.095 149.777 156.095C149.17 156.095 148.678 156.586 148.678 157.192C148.678 157.798 149.17 158.289 149.777 158.289Z" fill="black"/>
<path d="M149.777 157.842C150.385 157.842 150.877 157.351 150.877 156.745C150.877 156.139 150.385 155.648 149.777 155.648C149.17 155.648 148.678 156.139 148.678 156.745C148.678 157.351 149.17 157.842 149.777 157.842Z" fill="#3F3D56"/>
<path d="M175.123 185.407C175.123 185.407 175.872 186.529 175.123 187.053C174.374 187.577 175.196 188.844 175.196 188.844C175.196 188.844 173.327 189.937 174.15 190.92C174.972 191.903 174.451 196.344 174.451 196.344L172.203 200.057C172.203 200.057 172.338 202.45 172.346 205.684C172.346 210.73 172.049 217.823 170.403 221.057L170.631 247.59C170.631 247.59 162.76 250.458 156.171 249.585L155.193 207.008C155.193 207.008 156.619 182.864 157.144 178.233C157.452 175.828 157.577 173.404 157.519 170.981C157.519 170.981 157.295 163.733 156.541 160.369C156.541 160.369 155.727 145.796 155.646 141.762C155.609 139.832 155.711 134.202 155.825 128.847C155.951 122.993 156.093 117.472 156.093 117.472L154.607 105.739C154.607 105.739 156.093 105.588 156.541 106.186C156.742 106.373 156.96 106.54 157.193 106.685C159.758 108.416 168.823 113.738 168.823 113.738C168.823 113.738 173.84 115.729 175.042 118.581C176.243 121.433 177.078 123.456 177.66 124.268C178.242 125.081 178.56 128.9 178.56 128.9C178.56 128.9 180.287 135.928 181.635 137.119C182.983 138.309 183.968 145.882 183.968 145.882L172.057 155.226C172.057 155.226 171.01 170.77 170.786 171.371C170.562 171.972 175.123 185.407 175.123 185.407Z" fill="white"/>
<path d="M175.575 185.407C175.575 185.407 176.32 186.529 175.575 187.053C174.83 187.577 175.644 188.844 175.644 188.844C175.644 188.844 173.787 189.949 174.602 190.932C175.416 191.916 174.903 196.356 174.903 196.356L172.655 200.069C172.655 200.069 172.79 202.462 172.802 205.696C172.802 210.742 172.505 217.835 170.859 221.069L171.083 247.602C171.083 247.602 163.2 250.471 156.619 249.597L155.646 207.021C155.646 207.021 157.071 182.876 157.596 178.245C157.904 175.84 158.028 173.416 157.967 170.993C157.967 170.993 157.743 163.745 156.993 160.381C156.993 160.381 156.179 145.809 156.093 141.774C156.057 139.845 156.163 134.214 156.273 128.859C156.399 123.005 156.541 117.484 156.541 117.484L154.579 105.592C154.579 105.592 156.541 105.592 156.993 106.198C157.192 106.387 157.411 106.554 157.645 106.697C160.21 108.428 169.279 113.75 169.279 113.75C169.279 113.75 174.292 115.741 175.494 118.593C176.695 121.445 177.53 123.468 178.116 124.281C178.703 125.093 179.012 128.912 179.012 128.912C179.012 128.912 180.739 135.94 182.087 137.131C183.435 138.321 184.408 145.878 184.408 145.878L172.496 155.222C172.496 155.222 171.45 170.765 171.222 171.367C170.994 171.968 175.575 185.407 175.575 185.407Z" fill="white"/>
<path opacity="0.1" d="M161.31 120.933L162.385 124.061L156.725 129.749C156.851 123.899 156.993 118.373 156.993 118.373L155.031 106.482C155.031 106.482 156.993 106.482 157.445 107.087C157.644 107.276 157.862 107.442 158.097 107.583L162.91 121.437L161.31 120.933Z" fill="black"/>
<path d="M160.858 120.035L161.937 123.163L156.277 128.851C156.403 122.997 156.545 117.476 156.545 117.476L154.579 105.584C154.579 105.584 156.545 105.584 156.993 106.19C157.193 106.378 157.411 106.545 157.645 106.689L162.462 120.539L160.858 120.035Z" fill="white"/>
<path opacity="0.1" d="M160.858 89.0818C160.861 90.5458 160.63 92.0009 160.174 93.3923C160.097 93.4043 160.018 93.4007 159.943 93.3819C159.867 93.363 159.796 93.3293 159.734 93.2826C159.628 89.6262 157.824 86.1933 155.605 83.2722C154.982 82.3903 154.226 81.6092 153.365 80.9565C152.494 80.3041 151.411 79.9985 150.327 80.0993C149.105 80.2659 148.026 81.0946 146.792 81.2003C145.164 81.3343 143.706 80.209 142.089 80.1521C141.432 80.1583 140.783 80.3043 140.187 80.5804C139.591 80.8564 139.061 81.2561 138.632 81.7528C137.782 82.7552 137.151 83.9229 136.779 85.1817C136.138 87.0905 135.79 89.0845 135.744 91.0969C135.724 92.2344 135.614 93.6604 134.555 94.0748C134.635 93.2382 134.54 92.3942 134.275 91.5963C134.011 90.7984 133.584 90.0639 133.02 89.4393L132.996 89.415C132.996 89.3012 132.996 89.1956 132.996 89.0818C132.964 87.2364 133.301 85.4032 133.987 83.6891C134.673 81.975 135.694 80.4143 136.991 79.0981C138.288 77.7819 139.835 76.7365 141.541 76.0229C143.247 75.3093 145.079 74.9418 146.929 74.9418C148.779 74.9418 150.61 75.3093 152.317 76.0229C154.023 76.7365 155.569 77.7819 156.866 79.0981C158.163 80.4143 159.185 81.975 159.871 83.6891C160.557 85.4032 160.894 87.2364 160.862 89.0818H160.858Z" fill="black"/>
<path d="M152.697 67.0094C150.581 66.0163 148.174 65.8285 145.929 66.4813C144.801 66.8144 143.738 67.3547 142.594 67.6269C140.151 68.216 137.3 67.5782 135.203 69.0042C134.038 69.8167 133.338 71.1005 132.686 72.3477L131.057 75.4435C130.169 77.1376 129.274 78.8601 128.903 80.7249C128.532 82.5897 128.756 84.6779 129.941 86.177C130.805 87.2698 132.079 87.9564 133.016 88.9843C133.577 89.6095 134.003 90.3436 134.266 91.1405C134.53 91.9375 134.625 92.7801 134.547 93.6157C135.61 93.2094 135.712 91.7794 135.736 90.6418C135.782 88.6295 136.13 86.6354 136.771 84.7266C137.142 83.4675 137.773 82.2996 138.623 81.2977C139.053 80.8014 139.583 80.402 140.179 80.126C140.776 79.85 141.424 79.7038 142.081 79.6971C143.71 79.7539 145.172 80.8752 146.784 80.7412C148.006 80.6396 149.089 79.8067 150.319 79.6442C151.403 79.5419 152.487 79.8476 153.357 80.5015C154.218 81.1532 154.972 81.9344 155.593 82.8172C157.816 85.7382 159.62 89.163 159.726 92.8275C160.186 93.1647 160.85 92.726 161.078 92.206C161.306 91.6859 161.314 91.0765 161.603 90.5809C161.937 90.0081 162.576 89.7034 163.077 89.2727C164.348 88.1799 164.666 86.3395 164.617 84.6697C164.568 83 164.242 81.3059 164.56 79.6646C164.751 78.657 165.183 77.7145 165.419 76.7191C165.655 75.7238 165.684 74.6066 165.126 73.7493C164.311 72.4899 162.597 72.2421 161.102 72.1243C159.404 71.978 157.885 72.1649 156.802 70.7389C156.294 69.9948 155.721 69.2961 155.092 68.6507C154.876 68.4395 152.697 67.0988 152.697 67.0094Z" fill="#512E4E"/>
<path opacity="0.1" d="M108.436 152.683L104.18 144.833L102.832 156.944C102.832 156.944 103.582 162.323 103.431 163.148C103.28 163.973 106.502 171.367 106.502 171.367C106.502 171.367 117.142 190.274 121.487 191.249L136.168 180.784L132.275 175.852C132.275 175.852 130.927 175.328 130.589 175.852C130.589 175.852 123.361 163.445 122.611 162.547C121.862 161.649 122.009 159.857 122.009 159.857C122.009 159.857 120.885 158.663 121.259 157.541C121.634 156.42 119.089 152.532 119.089 152.532L121.41 150.367L108.436 152.683Z" fill="black"/>
<path d="M104.404 143.94L103.28 144.833L101.933 156.944C101.933 156.944 102.682 162.323 102.531 163.148C102.38 163.973 105.606 171.367 105.606 171.367C105.606 171.367 116.242 190.274 120.587 191.249L135.272 180.784L131.375 175.852C131.375 175.852 130.027 175.328 129.689 175.852C129.689 175.852 122.461 163.444 121.711 162.547C120.962 161.649 121.113 159.857 121.113 159.857C121.113 159.857 119.989 158.663 120.364 157.541C120.738 156.42 118.189 152.532 118.189 152.532L120.51 150.367L104.404 143.94Z" fill="white"/>
<path opacity="0.1" d="M174.15 191.383C174.964 192.371 174.451 196.803 174.451 196.803L172.203 200.516C172.203 200.516 172.338 202.913 172.346 206.143L168.567 207.321C168.225 207.428 167.863 207.451 167.511 207.389C167.158 207.328 166.826 207.183 166.541 206.967C166.256 206.751 166.027 206.471 165.873 206.148C165.719 205.826 165.644 205.472 165.655 205.115L166.307 184.148L175.123 187.512C174.374 188.032 175.196 189.307 175.196 189.307C175.196 189.307 173.327 190.396 174.15 191.383Z" fill="black"/>
<path d="M174.602 190.932C175.416 191.92 174.903 196.356 174.903 196.356L172.655 200.069C172.655 200.069 172.79 202.462 172.802 205.696L168.954 206.895C168.619 206.998 168.265 207.021 167.92 206.96C167.575 206.9 167.249 206.758 166.97 206.546C166.692 206.335 166.467 206.06 166.317 205.745C166.166 205.429 166.092 205.083 166.103 204.733L166.759 183.701L175.579 187.065C174.826 187.585 175.648 188.856 175.648 188.856C175.648 188.856 173.787 189.949 174.602 190.932Z" fill="white"/>
<path d="M177.522 180.938C177.522 180.938 176.923 184.753 175.424 184.977C173.926 185.2 173.254 191.148 171.759 190.937C170.265 190.725 171.254 185.407 171.307 184.375C171.36 183.343 169.678 179.07 170.937 178.099C172.195 177.128 176.178 178.099 176.178 178.099L177.522 180.938Z" fill="#CF6F80"/>
<path opacity="0.1" d="M180.71 151.561L183.536 145.874C183.536 145.874 184.66 150.208 184.66 152.524C184.66 154.84 186.232 155.067 186.232 155.067C186.232 155.067 187.955 157.099 187.047 158.577C186.139 160.056 185.772 163.737 185.772 163.737C185.772 163.737 186.069 170.761 184.721 171.732C183.373 172.703 183.092 175.023 183.092 175.023C183.092 175.023 180.617 179.431 180.694 180.479C180.771 181.527 177.249 188.625 177.249 188.625C177.249 188.625 178.971 179.805 168.933 175.994C168.933 175.994 168.856 173 169.605 172.179C170.354 171.359 171.523 170.985 170.79 166.837C170.057 162.689 170.578 157.732 170.578 156.737C170.578 155.742 172.826 149.534 172.826 149.534L180.71 151.561Z" fill="black"/>
<path d="M181.932 145.061L184.4 145.874C184.4 145.874 185.528 150.208 185.528 152.524C185.528 154.84 187.1 155.067 187.1 155.067C187.1 155.067 188.822 157.099 187.914 158.577C187.006 160.056 186.643 163.737 186.643 163.737C186.643 163.737 186.941 170.761 185.593 171.732C184.245 172.703 183.944 175.023 183.944 175.023C183.944 175.023 181.472 179.431 181.549 180.479C181.626 181.527 178.1 188.625 178.1 188.625C178.1 188.625 179.827 179.805 169.784 175.994C169.784 175.994 169.711 173 170.46 172.179C171.21 171.359 172.378 170.985 171.645 166.837C170.912 162.689 171.434 157.732 171.434 156.737C171.434 155.742 173.681 149.534 173.681 149.534L181.932 145.061Z" fill="white"/>
<path opacity="0.1" d="M127.425 292.483C127.425 292.483 131.359 290.017 133.94 291.808C136.522 293.6 127.425 292.483 127.425 292.483Z" fill="black"/>
<path opacity="0.1" d="M157.991 284.857C157.991 284.857 161.473 284.41 164.397 287.55C167.321 290.691 157.991 284.857 157.991 284.857Z" fill="black"/>
<g opacity="0.1">
<path d="M163.085 88.383C162.585 88.8136 161.941 89.1224 161.607 89.6952C161.322 90.1868 161.314 90.7922 161.086 91.3203C160.858 91.8484 160.194 92.2791 159.734 91.946C159.628 88.2896 157.82 84.8566 155.601 81.9315C154.98 81.0487 154.226 80.2675 153.365 79.6158C152.493 78.9621 151.409 78.6564 150.323 78.7586C149.101 78.9252 148.026 79.7539 146.792 79.8555C145.164 79.9936 143.702 78.8683 142.085 78.8114C141.428 78.8179 140.78 78.9645 140.184 79.2412C139.589 79.518 139.059 79.9186 138.632 80.4161C137.782 81.4165 137.15 82.583 136.779 83.841C136.139 85.7499 135.79 87.7439 135.744 89.7562C135.72 90.8897 135.614 92.3035 134.563 92.726C134.588 93.0261 134.588 93.3277 134.563 93.6279C135.622 93.2216 135.728 91.7916 135.753 90.654C135.798 88.6417 136.147 86.6476 136.787 84.7388C137.159 83.4796 137.79 82.3118 138.64 81.3099C139.068 80.8137 139.598 80.4143 140.193 80.1383C140.789 79.8623 141.437 79.716 142.093 79.7092C143.722 79.7661 145.188 80.8874 146.801 80.7533C148.022 80.6518 149.105 79.8189 150.331 79.6564C151.417 79.5542 152.502 79.8599 153.373 80.5136C154.234 81.1654 154.988 81.9466 155.609 82.8294C157.828 85.7504 159.636 89.1752 159.742 92.8397C160.202 93.1769 160.866 92.7382 161.094 92.2181C161.322 91.6981 161.33 91.0887 161.615 90.5931C161.949 90.0203 162.593 89.7156 163.094 89.2849C164.364 88.1921 164.682 86.3517 164.633 84.6819C164.633 84.6291 164.633 84.5763 164.633 84.5275C164.556 85.9739 164.169 87.4486 163.085 88.383Z" fill="black"/>
<path d="M133.024 88.0945C132.088 87.0667 130.809 86.3801 129.95 85.2913C129.226 84.3274 128.813 83.1672 128.765 81.964C128.636 83.4676 129.057 84.9667 129.95 86.1851C130.809 87.2779 132.088 87.9645 133.024 88.9924C133.923 89.9978 134.463 91.2722 134.559 92.6163C134.622 91.7983 134.518 90.9761 134.254 90.1992C133.99 89.4222 133.572 88.7063 133.024 88.0945Z" fill="black"/>
<path d="M165.427 75.8294C165.187 76.8248 164.759 77.7714 164.564 78.7749C164.448 79.4454 164.406 80.1265 164.437 80.8062C164.451 80.419 164.493 80.0334 164.564 79.6524C164.759 78.6448 165.187 77.7023 165.427 76.707C165.567 76.158 165.613 75.5892 165.561 75.025C165.536 75.296 165.491 75.5649 165.427 75.8294Z" fill="black"/>
</g>
<path opacity="0.1" d="M54.051 309.001C75.9656 309.001 93.731 306.155 93.731 302.643C93.731 299.132 75.9656 296.285 54.051 296.285C32.1363 296.285 14.371 299.132 14.371 302.643C14.371 306.155 32.1363 309.001 54.051 309.001Z" fill="#6C584C"/>
<path d="M55.3297 180.845H52.7764V238.197H55.3297V180.845Z" fill="#535461"/>
<path d="M71.3743 238.023L71.2155 240.606L70.9875 244.263L70.8938 245.782L70.6698 249.439L70.5721 250.958L70.3441 254.615L67.7704 296.082C67.6585 297.866 66.8694 299.541 65.5636 300.765C64.2579 301.989 62.5336 302.671 60.7417 302.672H47.3603C45.5688 302.671 43.845 301.989 42.5399 300.765C41.2348 299.54 40.4465 297.866 40.3356 296.082L37.7742 254.586L37.5462 250.93L37.4525 249.41L37.2244 245.754L37.1308 244.234L36.9027 240.578L36.7398 237.994C36.7116 237.497 36.7854 236.999 36.9569 236.531C37.1284 236.063 37.3938 235.636 37.737 235.274C38.0802 234.912 38.4939 234.624 38.9526 234.427C39.4114 234.231 39.9056 234.13 40.4049 234.131H67.7745C68.2719 234.135 68.7631 234.241 69.2179 234.442C69.6727 234.643 70.0813 234.935 70.4186 235.299C70.756 235.664 71.0148 236.094 71.1792 236.562C71.3435 237.031 71.41 237.528 71.3743 238.023Z" fill="#3F3D56"/>
<path d="M71.2155 240.606L70.9875 244.251H37.1145L36.8864 240.606H71.2155Z" fill="#9D9CB5"/>
<path d="M70.8938 245.77L70.6698 249.418H37.4362L37.2082 245.77H70.8938Z" fill="#9D9CB5"/>
<path d="M70.5721 250.942L70.3481 254.586H37.7579L37.5299 250.942H70.5721Z" fill="#9D9CB5"/>
<path d="M32.9893 202.34C47.8571 213.074 54.0632 229.861 54.0632 229.861C54.0632 229.861 36.1453 229.247 21.2734 218.514C6.40158 207.78 0.207685 190.997 0.207685 190.997C0.207685 190.997 18.1174 191.607 32.9893 202.34Z" fill="#6C584C"/>
<path d="M0.195469 190.997C0.195469 190.997 18.7975 201.296 24.7634 209.824C30.7292 218.351 54.0632 229.861 54.0632 229.861" stroke="#535461" stroke-width="2" stroke-miterlimit="10"/>
<path d="M42.5876 180.719C50.6792 186.557 54.0632 195.694 54.0632 195.694C54.0632 195.694 44.3102 195.361 36.2145 189.523C28.1189 183.685 24.743 174.544 24.743 174.544C24.743 174.544 34.492 174.877 42.5876 180.719Z" fill="#6C584C"/>
<path d="M24.743 174.544C24.743 174.544 34.8666 180.15 38.1122 184.79C41.3578 189.429 54.0632 195.694 54.0632 195.694" stroke="#535461" stroke-width="2" stroke-miterlimit="10"/>
<path d="M65.8116 195.231C56.5147 205.424 54.5478 218.745 54.5478 218.745C54.5478 218.745 67.6564 215.536 76.9452 205.339C86.234 195.141 88.209 181.824 88.209 181.824C88.209 181.824 75.1086 185.038 65.8116 195.231Z" fill="#6C584C"/>
<path d="M88.2172 181.828C88.2172 181.828 76.1063 192.277 73.0277 199.476C69.949 206.675 54.5478 218.745 54.5478 218.745" stroke="#535461" stroke-width="2" stroke-miterlimit="10"/>
<path d="M407.091 191.643C407.091 191.643 400.367 158.273 402.941 154.121C402.941 154.121 403.035 150.261 402.88 145.341C402.88 145.154 402.88 144.968 402.88 144.777C403.333 145.078 403.805 145.349 404.293 145.589C406.664 146.805 409.387 147.155 411.99 146.58L409.953 144.318C409.465 143.777 408.956 143.192 408.85 142.477C408.744 141.762 409.037 141.124 409.29 140.486C411.224 135.611 411.326 129.481 407.6 125.759C404.452 122.631 403.686 118.593 400.27 115.737C397.773 113.645 396.401 110.577 395.106 107.611C394.011 105.105 392.907 102.578 392.28 99.9209C391.791 97.8449 391.596 95.6957 390.924 93.6685C390.252 91.6412 388.994 89.6708 387.027 88.7648C386.326 88.4439 385.548 88.2611 384.909 87.8345C384.07 87.2698 383.565 86.3516 382.959 85.5472C379.876 81.4846 369.553 83.8775 364.666 85.5269C363.337 85.9423 362.107 86.6223 361.05 87.5257L361.095 87.4526C361.131 87.3917 361.176 87.3307 361.217 87.2698C360.682 87.7013 360.22 88.2157 359.848 88.7933C359.136 89.9186 358.839 91.2309 358.244 92.4497C357.527 93.8919 353.541 97.918 355.255 99.539C355.375 99.6479 355.513 99.7358 355.662 99.799C356.306 100.066 357.014 100.137 357.698 100.002L357.625 100.177C357.04 101.607 356.739 103.137 356.741 104.682C356.741 111.357 362.259 116.769 369.072 116.769C370.353 116.77 371.626 116.574 372.847 116.188C372.876 116.342 372.9 116.497 372.929 116.651C372.929 116.712 372.949 116.773 372.957 116.834L372.741 117.134C372.73 117.116 372.718 117.098 372.705 117.082L366.311 125.995C365.334 126.682 359.706 130.744 359.388 133.791C359.054 137.127 358.72 141.031 358.72 141.031L358.676 141.868C358.396 142.101 358.069 142.27 357.718 142.365C357.366 142.46 356.999 142.477 356.64 142.416C354.644 142.091 354.644 149.729 354.644 149.729C354.644 149.729 353.317 150.948 352.404 149.891C351.492 148.835 349.081 152.414 349.081 152.414L333.973 153.064L333.627 153.085L332.813 150.57C332.725 150.305 332.536 150.085 332.287 149.958C332.037 149.831 331.748 149.807 331.481 149.891C331.418 149.912 331.357 149.938 331.298 149.969L331.241 150.001L331.135 150.074L331.082 150.123C331.053 150.15 331.026 150.178 331.001 150.208L330.952 150.265L330.927 150.29C330.833 150.419 330.771 150.569 330.746 150.727C330.72 150.885 330.732 151.047 330.781 151.2L331.481 153.357C328.565 153.942 325.585 155.591 328.016 160.133L315.693 157.862L319.68 161.202L340.261 165.439C339.988 165.927 340.167 166.634 341.018 167.629C344.683 171.923 351.362 173.089 354.05 173.39C354.759 174.974 355.646 176.473 356.692 177.859L356.46 182.137C356.46 182.137 349.656 214.744 348.41 216.397C349.039 215.686 349.614 214.93 350.132 214.134C348.157 220.834 345.396 230.003 344.671 231.376C343.507 233.57 342.427 242.447 343.755 243.016C344.162 243.19 345.327 243.105 346.988 242.979V243.714L346.915 271.58C346.915 271.58 347.249 288.672 346.333 290.301C345.416 291.93 345.172 295.347 345.172 295.347C345.172 295.347 341.507 302.087 338.604 304.796C338.584 304.817 338.562 304.836 338.538 304.853L338.449 304.219C338.449 304.219 334.959 308.615 327.238 308.367C327.238 308.367 322.591 311.382 329.482 311.544C336.372 311.707 345.172 311.301 345.172 311.301C345.172 311.301 351.317 301.957 356.464 303.175V310.257H358.04V303.062C358.771 302.582 359.397 301.958 359.879 301.23C360.361 300.502 360.69 299.683 360.846 298.824C360.981 297.939 360.882 297.034 360.559 296.198C360.237 295.362 359.701 294.625 359.006 294.059C358.693 293.777 358.442 293.434 358.269 293.051C358.096 292.667 358.004 292.253 358 291.832L357.943 291.881C357.943 291.739 357.906 291.593 357.89 291.442C357.438 287.786 356.872 280.242 358.871 274.66C361.612 267.006 362.443 256.345 360.447 249.999C359.803 247.971 359.274 245.908 358.863 243.82C358.814 243.556 358.769 243.304 358.729 243.068C360.093 243.253 361.443 243.524 362.772 243.881C367.394 245.153 377.506 245.388 386.139 245.319C386.159 245.555 386.184 245.803 386.212 246.05C386.366 247.773 386.688 249.477 387.173 251.137C388.257 254.387 388.753 268.716 388.753 268.716C388.753 268.716 390.15 280.498 389.389 285.292C388.981 287.957 388.574 290.634 388.342 293.323V293.376C388.342 293.376 386.053 299.876 384.38 303.407C384.339 303.496 384.294 303.586 384.253 303.671C383.807 303.712 383.368 303.808 382.946 303.959C382.946 303.959 380.702 308.428 378.467 309.168C376.231 309.907 376.972 312.341 382.034 311.447C387.096 310.553 394.74 309.822 394.74 309.822L395.069 305.264L396.625 303.322L396.218 307.868L397.875 307.543L397.655 302.013L400.2 298.836C400.2 298.836 403.275 296.106 398.706 290.736V290.853C398.657 290.776 398.612 290.695 398.559 290.618V290.593C397.802 289.423 397.199 287.242 398.303 283.37C400.298 276.374 401.459 270.024 401.459 270.024C401.459 270.024 405.914 253.014 400.559 244.966H400.795C400.246 243.833 399.858 242.63 399.643 241.391C399.615 241.244 399.591 241.094 399.569 240.94C403.531 240.712 407.421 239.997 410.593 238.453C410.581 238.437 408.671 198.07 407.091 191.643ZM356.786 163.489V163.57L355.972 163.611L356.786 163.489ZM353.993 163.875C353.859 163.905 353.733 163.965 353.626 164.05C353.276 164.544 353.056 165.118 352.987 165.72L351.716 165.435C351.716 165.435 350.824 165.244 349.542 165.029L348.935 164.42C350.604 164.281 352.339 164.078 353.993 163.875Z" fill="url(#paint1_linear_3_144)"/>
<path d="M396.03 302.07L395.546 307.827L397.171 307.502L396.926 301.258L396.03 302.07Z" fill="#1D2366"/>
<path d="M358.961 274.737C357.002 280.303 357.556 287.814 357.996 291.463C358.159 292.812 358.309 293.632 358.309 293.632C358.309 293.632 355.381 300.287 355.137 300.539C354.893 300.791 346.52 305.889 346.52 305.889L340.668 309.298C340.668 309.298 334.731 306.702 337.577 305.808C338.159 305.575 338.683 305.219 339.113 304.764C341.963 302.062 345.543 295.347 345.543 295.347C345.543 295.347 345.787 291.938 346.683 290.317C347.579 288.696 347.253 271.661 347.253 271.661L347.322 243.893V240.273L358.46 240.355C358.53 241.583 358.691 242.806 358.94 244.011C359.34 246.092 359.858 248.148 360.492 250.17C362.455 256.504 361.64 267.111 358.961 274.737Z" fill="#FFB0B1"/>
<path opacity="0.1" d="M358.309 293.632C358.309 293.632 355.381 300.287 355.137 300.539C354.893 300.791 346.52 305.889 346.52 305.889L340.668 309.298C340.668 309.298 334.731 306.702 337.577 305.808C338.159 305.575 338.683 305.219 339.113 304.764L339.365 306.539L341.316 306.458L358.012 291.471C358.159 292.812 358.309 293.632 358.309 293.632Z" fill="black"/>
<path d="M358.106 291.849L341.316 306.937L339.365 307.019L338.958 304.175C338.958 304.175 335.545 308.554 327.963 308.311C327.963 308.311 323.41 311.313 330.158 311.475C336.905 311.638 345.522 311.232 345.522 311.232C345.522 311.232 351.541 301.887 356.578 303.106V310.163H358.126V303.041C358.845 302.558 359.459 301.935 359.931 301.209C360.403 300.482 360.722 299.669 360.871 298.816C361.005 297.938 360.91 297.04 360.595 296.209C360.281 295.378 359.757 294.642 359.075 294.071C358.77 293.786 358.527 293.442 358.36 293.06C358.194 292.677 358.107 292.265 358.106 291.849Z" fill="#1D2366"/>
<path d="M397.578 283.415C396.495 287.274 397.085 289.448 397.826 290.614V290.638C398.777 292.078 399.438 293.688 399.773 295.379L399.838 295.745L392.198 306.856L388.053 308.481C388.053 308.481 381.387 306.21 382.604 305.56C382.91 305.402 383.386 304.557 383.932 303.391C385.561 299.876 387.809 293.392 387.809 293.392V293.34C388.045 290.662 388.419 287.993 388.835 285.336C389.58 280.554 388.212 268.817 388.212 268.817C388.212 268.817 387.723 254.545 386.664 251.299C386.186 249.649 385.869 247.957 385.715 246.245C385.496 244.214 385.447 242.54 385.447 242.54C385.447 242.54 389.837 236.446 397.883 243.028C398.527 243.553 399.093 244.165 399.565 244.848C405.124 252.738 400.648 270.118 400.648 270.118C400.648 270.118 399.528 276.439 397.578 283.415Z" fill="#FFB0B1"/>
<path opacity="0.1" d="M399.85 295.745L392.211 306.856L388.065 308.481C388.065 308.481 381.399 306.21 382.616 305.56C382.922 305.402 383.398 304.557 383.944 303.391C386.766 303.366 388.228 306.048 388.228 306.048L391.803 305.479C391.803 305.479 396.519 296.232 397.578 295.668C398.637 295.103 397.741 291.446 397.741 291.446V290.516C397.769 290.549 397.794 290.585 397.826 290.618V290.642C398.777 292.082 399.438 293.692 399.773 295.383L399.85 295.745Z" fill="black"/>
<path d="M388.472 306.287C388.472 306.287 386.436 302.558 382.535 303.935C382.535 303.935 380.34 308.404 378.145 309.127C375.95 309.85 376.683 312.288 381.643 311.398C386.603 310.509 394.08 309.773 394.08 309.773L394.406 305.227L399.447 298.82C399.447 298.82 402.452 296.102 397.981 290.752V291.682C397.981 291.682 398.877 295.339 397.818 295.903C396.759 296.468 392.06 305.719 392.06 305.719L388.472 306.287Z" fill="#1D2366"/>
<path opacity="0.1" d="M358.472 240.346C358.542 241.575 358.703 242.797 358.953 244.003C354.367 243.333 350.112 243.666 347.322 243.885V240.265L358.472 240.346Z" fill="black"/>
<path opacity="0.1" d="M400.017 245.859C400.017 245.859 393.502 246.176 385.732 246.241C385.512 244.21 385.463 242.536 385.463 242.536C385.463 242.536 389.853 236.442 397.9 243.024C398.543 243.549 399.109 244.161 399.581 244.844C399.708 245.19 399.853 245.529 400.017 245.859Z" fill="black"/>
<path d="M400.017 245.128C400.017 245.128 371.479 246.506 362.78 244.072C354.082 241.638 345.461 243.747 344.162 243.182C342.863 242.618 343.918 233.773 345.058 231.583C346.198 229.394 352.453 207.248 352.453 207.248L358.472 175.941L364.813 174.198L365.26 174.072L376.309 171.034L384.404 168.803C384.404 168.803 400.502 231.502 399.121 236.125C398.62 237.896 398.539 239.758 398.885 241.565C399.096 242.799 399.477 243.998 400.017 245.128Z" fill="#1D2366"/>
<path d="M337.492 154.531C337.492 154.531 331.791 160.625 336.107 164.021C340.424 167.418 343.262 164.346 343.262 164.346L337.492 154.531Z" fill="#C7DAF5"/>
<path opacity="0.1" d="M337.492 154.531C337.492 154.531 331.791 160.625 336.107 164.021C340.424 167.418 343.262 164.346 343.262 164.346L337.492 154.531Z" fill="black"/>
<path d="M383.553 114.465C383.553 114.465 382.885 115.099 381.879 116.033C380.446 117.37 378.324 119.324 376.443 120.961C373.837 123.224 371.687 124.886 372.456 123.468C373.226 122.05 373.079 119.58 372.696 117.268C372.668 117.114 372.644 116.96 372.615 116.809C372.298 115.112 371.878 113.435 371.357 111.788C371.357 111.788 375.567 106.36 377.897 104.219C378.764 103.407 379.371 103.074 379.408 103.638C379.448 104.398 380.018 106.076 380.727 107.855C380.747 107.912 380.768 107.965 380.792 108.022C381.264 109.241 381.798 110.492 382.266 111.573C382.983 113.23 383.553 114.465 383.553 114.465Z" fill="#FFB0B1"/>
<path opacity="0.1" d="M380.792 108.022C380.396 110.145 379.436 112.123 378.012 113.75C376.588 115.377 374.752 116.592 372.696 117.268C372.373 115.414 371.925 113.583 371.357 111.788C371.357 111.788 379.285 101.57 379.408 103.638C379.436 104.422 380.055 106.161 380.792 108.022Z" fill="black"/>
<path opacity="0.1" d="M371.906 119.999L372.933 118.556C372.933 118.556 373.613 122.692 376.113 120.868C378.613 119.044 378.736 134.596 378.736 134.596L376.052 174.625L356.66 173.467L357.21 154.125L359.405 144.374L364.833 130.2L368.062 125.516L371.906 119.999Z" fill="black"/>
<path d="M378.736 134.843L376.292 171.038L376.036 174.873L365.224 174.227L364.817 174.202L356.672 173.715L357.222 154.369L359.417 144.618L364.845 130.444L368.074 125.759L371.919 120.222L372.945 118.784C372.945 118.784 373.625 122.92 376.125 121.095L376.178 121.059C378.622 119.515 378.736 134.843 378.736 134.843Z" fill="#1D2366"/>
<path d="M359.69 141.23C359.69 141.23 358.716 143.261 356.762 142.932C354.807 142.603 354.811 150.245 354.811 150.245C354.811 150.245 353.512 151.464 352.616 150.408C351.72 149.351 349.358 152.922 349.358 152.922L334.56 153.572C334.56 153.572 341.145 156.575 339.854 165.659C339.854 165.659 362.21 164.277 362.943 162.169C363.676 160.06 359.69 141.23 359.69 141.23Z" fill="white"/>
<path opacity="0.03" d="M359.69 141.23C359.69 141.23 358.716 143.261 356.762 142.932C354.807 142.603 354.811 150.245 354.811 150.245C354.811 150.245 353.512 151.464 352.616 150.408C351.72 149.351 349.358 152.922 349.358 152.922L334.56 153.572C334.56 153.572 341.145 156.575 339.854 165.659C339.854 165.659 362.21 164.277 362.943 162.169C363.676 160.06 359.69 141.23 359.69 141.23Z" fill="black"/>
<path d="M316.683 158.346L320.584 161.669L352.698 168.401L348.715 164.346L316.683 158.346Z" fill="white"/>
<path d="M371.967 121.278C371.434 122.091 369.907 126.251 368.632 129.883C367.569 132.91 366.682 135.571 366.682 135.571C366.682 135.571 364.609 149.034 363.55 151.468C362.491 153.901 363.066 163.392 363.066 163.392L359.12 186.829C359.12 186.829 357.332 198.916 354.571 206.135C351.847 213.241 348.813 216.572 348.719 216.677C349.941 215.028 356.599 182.551 356.599 182.551L358.798 141.592C358.798 141.592 359.12 137.7 359.445 134.372C359.771 131.045 366.368 126.503 366.368 126.503L372.729 117.48C373.368 118.333 372.941 119.82 371.967 121.278Z" fill="white"/>
<path d="M355.381 173.918C355.381 173.918 346.015 173.512 341.479 168.076C336.942 162.64 351.965 165.906 351.965 165.906L355.87 166.8L355.381 173.918Z" fill="#FFB0B1"/>
<path opacity="0.1" d="M399.121 236.129C398.62 237.9 398.539 239.762 398.885 241.569C388.668 242.292 377.738 239.538 377.738 239.538C375.702 241.407 370.339 244.161 370.339 244.161L367.415 208.004C365.546 203.128 364.813 177.587 364.813 177.587C364.813 177.587 364.98 176.25 365.22 174.247C365.22 174.198 365.22 174.146 365.24 174.097C365.969 168.503 367.415 158.001 368.123 156.583C369.101 154.633 365.118 149.445 365.118 149.445L366.93 134.027L367.15 132.166C370.97 130.464 373.898 125.028 373.898 125.028L376.146 121.099C378.589 119.535 378.715 134.864 378.715 134.864L376.272 171.058L384.368 168.828C384.368 168.828 400.502 231.506 399.121 236.129Z" fill="black"/>
<path d="M409.607 238.628C398.47 244.145 378.227 239.034 378.227 239.034C376.19 240.903 370.827 243.658 370.827 243.658L367.899 207.5C366.034 202.625 365.301 177.083 365.301 177.083C365.301 177.083 367.655 158.025 368.632 156.079C368.917 155.51 368.779 154.665 368.441 153.755C366.779 149.424 366.168 144.761 366.657 140.149L367.439 133.523L367.655 131.666C371.479 129.96 374.407 124.524 374.407 124.524L376.443 120.965L380.189 114.408L381.965 111.304L382.266 111.577L384.567 113.657C384.567 113.657 385.544 114.469 387.01 115.688C390.199 118.369 395.709 123.09 398.551 125.979C401.052 128.522 401.842 138.415 402.07 145.861C402.22 150.765 402.131 154.608 402.131 154.608C399.61 158.748 406.203 191.985 406.203 191.985C407.738 198.408 409.607 238.628 409.607 238.628Z" fill="white"/>
<path opacity="0.03" d="M388.228 124.443C388.228 124.443 380.584 138.959 381.472 144.476C382.36 149.993 384.885 156.237 383.667 157.696C383.249 158.249 382.708 158.697 382.087 159.006C381.466 159.316 380.782 159.478 380.088 159.479C378.866 159.561 375.608 161.832 375.608 162.075C375.608 162.319 372.599 162.319 369.907 163.457C367.215 164.594 363.241 165.24 363.241 165.24C363.241 165.24 355.503 164.997 354.783 165.728C354.062 166.459 353.321 170.835 354.864 174.324C356.407 177.814 358.122 180.418 359.417 180.894C360.712 181.369 368.93 178.623 375.596 177.973C382.262 177.323 389.499 172.053 389.499 172.053C389.499 172.053 397.468 169.21 398.865 164.428C400.262 159.646 397.159 133.365 397.159 133.365C397.159 133.365 394.813 121.116 388.228 124.443Z" fill="black"/>
<path opacity="0.03" d="M387.251 123.224C387.251 123.224 379.607 137.744 380.503 143.257C381.399 148.77 383.915 155.019 382.694 156.481C382.277 157.034 381.737 157.483 381.117 157.793C380.496 158.102 379.812 158.264 379.118 158.265C377.897 158.346 374.639 160.617 374.639 160.861C374.639 161.104 371.629 161.104 368.938 162.238C366.246 163.371 362.271 164.021 362.271 164.021C362.271 164.021 354.534 163.778 353.817 164.509C353.101 165.24 352.351 169.62 353.899 173.105C355.446 176.591 357.157 179.199 358.452 179.675C359.747 180.15 367.964 177.404 374.631 176.758C381.297 176.112 388.533 170.834 388.533 170.834C388.533 170.834 396.499 167.991 397.879 163.213C399.26 158.435 396.173 132.146 396.173 132.146C396.173 132.146 393.835 119.901 387.251 123.224Z" fill="black"/>
<path d="M387.988 123.712C387.988 123.712 380.344 138.232 381.24 143.745C382.136 149.258 384.653 155.506 383.435 156.965C383.018 157.519 382.478 157.969 381.857 158.279C381.235 158.59 380.55 158.752 379.855 158.752C378.634 158.833 375.376 161.104 375.376 161.344C375.376 161.584 372.371 161.588 369.675 162.725C366.979 163.863 363.009 164.509 363.009 164.509C363.009 164.509 355.271 164.265 354.551 164.996C353.83 165.728 353.089 170.107 354.632 173.593C356.175 177.079 357.89 179.687 359.185 180.162C360.48 180.638 368.698 177.891 375.364 177.241C382.03 176.591 389.266 171.322 389.266 171.322C389.266 171.322 397.236 168.478 398.633 163.696C400.029 158.915 396.947 132.633 396.947 132.633C396.947 132.633 394.569 120.405 387.988 123.712Z" fill="white"/>
<path opacity="0.1" d="M387.821 162.656C387.821 162.656 381.712 161.438 383.838 163.469C385.964 165.5 385.952 167.28 388.554 167.198C391.156 167.117 387.821 162.656 387.821 162.656Z" fill="black"/>
<path opacity="0.1" d="M398.144 206.362C398.144 206.362 395.383 208.227 400.665 212.525C405.946 216.824 398.144 206.362 398.144 206.362Z" fill="black"/>
<path opacity="0.1" d="M392.874 221.691C392.874 221.935 391.897 230.629 395.554 232.802C399.211 234.976 392.874 221.691 392.874 221.691Z" fill="black"/>
<path d="M334.812 153.552C331.864 153.654 325.495 154.551 328.798 160.698C331.717 166.138 336.624 162.502 339.385 159.743C338.712 157.172 337.075 154.956 334.812 153.552Z" fill="#FFB0B1"/>
<path d="M339.422 159.696L339.545 159.569L339.422 159.696Z" fill="#FFB0B1"/>
<path opacity="0.1" d="M387.01 115.936C383.883 118.069 381.26 119.869 380.747 120.242C379.346 121.278 376.675 127.36 374.952 130.464C373.58 132.962 369.121 133.604 367.439 133.763L367.655 131.906C371.479 130.2 374.407 124.764 374.407 124.764L381.965 111.544L384.567 113.905C384.567 113.905 385.544 114.717 387.01 115.936Z" fill="black"/>
<path d="M387.01 115.692C383.883 117.825 381.26 119.625 380.747 120.003C379.346 121.035 376.675 127.116 374.952 130.22C373.58 132.719 369.121 133.361 367.439 133.519L367.655 131.662C371.479 129.956 374.407 124.52 374.407 124.52L381.965 111.3L384.567 113.653C384.567 113.653 385.544 114.457 387.01 115.692Z" fill="#DCE7FF"/>
<path d="M380.992 105.34C380.993 107.779 380.252 110.161 378.866 112.17C377.229 114.545 374.793 116.256 371.999 116.992C369.206 117.729 366.24 117.442 363.641 116.184C361.042 114.926 358.98 112.779 357.831 110.135C356.682 107.49 356.522 104.522 357.378 101.769C358.235 99.0163 360.053 96.6611 362.501 95.1309C364.95 93.6007 367.867 92.9968 370.724 93.4289C373.58 93.8609 376.187 95.3003 378.071 97.4857C379.955 99.6712 380.991 102.458 380.992 105.34Z" fill="#FFB0B1"/>
<path opacity="0.1" d="M402.07 145.865C400.416 144.851 399.069 143.407 398.172 141.689C397.492 140.348 397.04 138.801 395.88 137.85C394.833 136.997 393.436 136.79 392.133 136.408C387.849 135.144 384.258 131.244 384.123 126.791C384.058 124.695 384.714 122.603 384.416 120.527C384.247 119.352 383.779 118.24 383.056 117.297C382.697 116.846 382.304 116.424 381.879 116.033C381.309 115.497 380.711 114.977 380.189 114.408C379.861 114.056 379.574 113.668 379.334 113.251C379.141 112.909 378.984 112.548 378.866 112.174C378.051 109.688 378.793 106.738 377.897 104.223L377.848 104.085C377.51 103.191 376.822 102.298 375.865 102.229C374.908 102.159 374.089 102.952 373.177 103.305C371.267 104.045 369.207 102.785 367.614 101.501C366.022 100.218 364.226 98.7509 362.202 99.0353C360.862 99.2262 359.804 100.136 358.57 100.608C358.291 100.715 358.004 100.798 357.711 100.855C358.755 98.2573 360.673 96.1032 363.137 94.7631C365.6 93.4229 368.454 92.9804 371.209 93.5116C373.963 94.0428 376.447 95.5145 378.232 97.6739C380.017 99.8333 380.993 102.545 380.992 105.345C380.993 106.19 380.904 107.033 380.727 107.859C380.747 107.916 380.768 107.969 380.792 108.026C381.264 109.245 381.798 110.496 382.266 111.577L384.567 113.657C384.567 113.657 385.544 114.469 387.01 115.688C390.199 118.369 395.709 123.09 398.551 125.979C401.051 128.53 401.833 138.419 402.07 145.865Z" fill="black"/>
<path d="M358.427 93.1851C359.01 92.0028 359.299 90.6784 359.995 89.5571C361.017 87.9321 362.801 86.892 364.633 86.2623C369.418 84.6169 379.53 82.2281 382.551 86.2623C383.146 87.0748 383.639 87.9768 384.461 88.5374C385.088 88.964 385.846 89.1468 386.534 89.4678C388.46 90.3697 389.69 92.336 390.346 94.3429C391.001 96.3499 391.197 98.5031 391.677 100.571C392.292 103.224 393.371 105.739 394.446 108.237C395.713 111.187 397.057 114.246 399.5 116.33C402.835 119.174 403.572 123.2 406.667 126.32C410.332 130.025 410.214 136.139 408.325 140.994C408.076 141.632 407.795 142.298 407.893 142.977C407.991 143.655 408.496 144.273 408.972 144.813L410.976 147.068C406.235 148.21 400.872 145.74 398.665 141.405C397.985 140.064 397.533 138.52 396.368 137.565C395.326 136.712 393.925 136.509 392.626 136.127C388.342 134.86 384.75 130.956 384.616 126.503C384.551 124.411 385.206 122.318 384.909 120.246C384.744 119.064 384.274 117.944 383.545 116.996C382.425 115.538 380.735 114.559 379.823 112.934C378.279 110.216 379.452 106.685 378.341 103.768C377.998 102.874 377.314 101.981 376.357 101.912C375.4 101.843 374.582 102.635 373.666 102.988C371.76 103.728 369.699 102.472 368.107 101.184C366.515 99.8966 364.719 98.434 362.691 98.7225C361.351 98.9094 360.296 99.8194 359.063 100.295C358.15 100.644 356.302 100.957 355.503 100.189C353.817 98.6412 357.723 94.6314 358.427 93.1851Z" fill="#591D4B"/>
<path opacity="0.1" d="M399.797 140.064C399.113 138.723 398.665 137.18 397.5 136.229C396.458 135.376 395.057 135.169 393.754 134.787C389.474 133.523 385.882 129.619 385.744 125.166C385.679 123.074 386.334 120.978 386.041 118.906C385.871 117.73 385.401 116.618 384.677 115.676C383.553 114.217 381.863 113.238 380.955 111.613C379.412 108.899 380.584 105.369 379.469 102.448C379.131 101.558 378.442 100.664 377.489 100.591C376.537 100.518 375.71 101.319 374.798 101.672C372.892 102.411 370.827 101.152 369.239 99.8681C367.651 98.5843 365.847 97.1177 363.823 97.4021C362.483 97.5931 361.424 98.5031 360.195 98.9744C359.282 99.3237 357.43 99.6406 356.631 98.8728C354.954 97.2477 358.859 93.246 359.559 91.8078C360.142 90.6215 360.431 89.3012 361.131 88.1799C361.168 88.1189 361.209 88.058 361.249 87.9971C360.725 88.4301 360.273 88.9429 359.91 89.5165C359.213 90.6378 358.924 91.9541 358.342 93.1444C357.637 94.5826 353.732 98.5965 355.414 100.209C356.228 100.981 358.061 100.664 358.973 100.315C360.195 99.8397 361.262 98.9297 362.601 98.7428C364.637 98.4543 366.429 99.9209 368.017 101.205C369.606 102.489 371.682 103.748 373.58 103.009C374.492 102.655 375.29 101.859 376.268 101.932C377.245 102.005 377.897 102.895 378.251 103.789C379.363 106.706 378.19 110.236 379.733 112.954C380.645 114.551 382.335 115.55 383.455 117.017C384.184 117.964 384.654 119.084 384.819 120.267C385.117 122.339 384.461 124.431 384.526 126.523C384.661 130.992 388.252 134.88 392.536 136.148C393.827 136.53 395.236 136.733 396.279 137.586C397.448 138.541 397.908 140.084 398.576 141.425C400.783 145.76 406.146 148.23 410.886 147.088L409.941 146.024C405.832 146.085 401.675 143.753 399.797 140.064Z" fill="black"/>
<path opacity="0.1" d="M371.723 121.522C371.19 122.335 369.663 126.495 368.388 130.127C367.195 129.664 366.112 126.71 366.112 126.71L372.473 117.683C373.124 118.577 372.696 120.06 371.723 121.522Z" fill="black"/>
<path d="M371.968 121.278C371.434 122.091 369.907 126.251 368.632 129.883C367.439 129.424 366.356 126.466 366.356 126.466L372.717 117.443C373.368 118.333 372.941 119.82 371.968 121.278Z" fill="#DCE7FF"/>
<path d="M334.983 162.782L331.457 151.687C331.415 151.557 331.399 151.42 331.411 151.285C331.422 151.149 331.46 151.016 331.523 150.895C331.586 150.774 331.672 150.666 331.777 150.578C331.881 150.491 332.002 150.424 332.133 150.383C332.395 150.301 332.679 150.326 332.923 150.453C333.168 150.579 333.352 150.796 333.436 151.057L336.962 162.14L336.612 164.46L334.983 162.782Z" fill="#BE8B87"/>
<path opacity="0.1" d="M331.791 150.712C332.054 150.629 332.339 150.654 332.584 150.78C332.829 150.906 333.014 151.124 333.098 151.387L336.624 162.469L336.36 164.208L336.616 164.476L336.967 162.157L333.42 151.074C333.335 150.813 333.151 150.595 332.907 150.469C332.663 150.343 332.379 150.318 332.116 150.399C331.896 150.471 331.705 150.614 331.575 150.806C331.644 150.769 331.716 150.737 331.791 150.712Z" fill="white"/>
<path d="M334.983 162.782L336.962 162.157L336.673 164.058L336.612 164.477L336.034 163.875L334.983 162.782Z" fill="#EFC8C4"/>
<path d="M336.034 163.875C336.068 163.832 336.111 163.796 336.16 163.77C336.189 163.752 336.222 163.742 336.256 163.742C336.29 163.742 336.323 163.752 336.352 163.77C336.379 163.803 336.403 163.84 336.421 163.879C336.448 163.924 336.484 163.962 336.528 163.991C336.572 164.02 336.621 164.039 336.673 164.046L336.612 164.452L336.034 163.875Z" fill="#727A9C"/>
<path d="M331.436 155.628C331.436 155.628 338.51 155.587 336.844 158.59C335.179 161.592 332.577 161.953 332.577 161.953L331.436 155.628Z" fill="#FFB0B1"/>
<path d="M287.444 20.8901H287.138C274.987 20.8901 264.24 27.3051 258.059 36.771C251.877 27.3051 241.13 20.8901 228.979 20.8901H228.673C219.554 20.9768 210.837 24.6505 204.417 31.1129C197.998 37.5752 194.394 46.304 194.389 55.4024C194.389 66.7006 199.349 82.7318 209.02 95.9232C227.447 121.059 258.059 143.05 258.059 143.05C258.059 143.05 288.67 121.063 307.092 95.9232C316.768 82.7318 321.724 66.7006 321.724 55.4024C321.719 46.3047 318.116 37.5765 311.697 31.1143C305.278 24.6521 296.563 20.9779 287.444 20.8901ZM283.074 97.8571C281.69 97.8518 280.34 97.4292 279.202 96.6447C278.063 95.8602 277.188 94.7505 276.693 93.4613H269.428C268.95 93.4583 268.484 93.3064 268.097 93.0267C267.709 92.747 267.419 92.3535 267.266 91.9012L265.034 85.1938L257.973 109.809C257.836 110.283 257.548 110.7 257.153 110.997C256.758 111.293 256.277 111.454 255.782 111.455H255.64C255.124 111.43 254.632 111.229 254.246 110.886C253.861 110.543 253.605 110.078 253.522 109.57L246.245 65.9043L240.927 91.7428C240.805 92.2336 240.521 92.6696 240.122 92.9811C239.723 93.2925 239.23 93.4616 238.723 93.4613H228.49C228.183 93.4742 227.877 93.4251 227.59 93.317C227.302 93.2088 227.04 93.0437 226.818 92.8317C226.597 92.6198 226.42 92.3653 226.3 92.0835C226.179 91.8018 226.117 91.4986 226.117 91.1923C226.117 90.886 226.179 90.5828 226.3 90.3011C226.42 90.0193 226.597 89.7648 226.818 89.5528C227.04 89.3409 227.302 89.1758 227.59 89.0676C227.877 88.9594 228.183 88.9104 228.49 88.9233H236.932L244.465 54.1836C244.589 53.6699 244.888 53.2151 245.31 52.8969C245.733 52.5786 246.253 52.4167 246.782 52.4388C247.311 52.4608 247.816 52.6655 248.211 53.0179C248.605 53.3702 248.865 53.8483 248.945 54.3704L256.377 98.9134L262.705 76.8897C262.837 76.4259 263.115 76.017 263.499 75.7241C263.883 75.4312 264.352 75.2701 264.835 75.2647H264.88C265.358 75.2648 265.824 75.4157 266.212 75.6959C266.6 75.976 266.889 76.3711 267.038 76.8247L271.073 88.9355H276.604C276.997 87.7438 277.712 86.6836 278.671 85.872C279.63 85.0603 280.795 84.5288 282.038 84.3361C283.281 84.1434 284.553 84.297 285.713 84.7799C286.874 85.2627 287.878 86.0562 288.616 87.0726C289.353 88.089 289.794 89.2889 289.891 90.5398C289.988 91.7907 289.737 93.0439 289.165 94.1613C288.593 95.2786 287.722 96.2166 286.65 96.8716C285.577 97.5266 284.344 97.8733 283.087 97.8733L283.074 97.8571Z" fill="#6C584C"/>
</g>
<defs>
<linearGradient id="paint0_linear_3_144" x1="145.106" y1="314.803" x2="145.106" y2="64.8115" gradientUnits="userSpaceOnUse">
<stop stop-color="#808080" stop-opacity="0.25"/>
<stop offset="0.54" stop-color="#808080" stop-opacity="0.12"/>
<stop offset="1" stop-color="#808080" stop-opacity="0.1"/>
</linearGradient>
<linearGradient id="paint1_linear_3_144" x1="363.827" y1="311.642" x2="363.827" y2="83.3209" gradientUnits="userSpaceOnUse">
<stop stop-color="#808080" stop-opacity="0.25"/>
<stop offset="0.54" stop-color="#808080" stop-opacity="0.12"/>
<stop offset="1" stop-color="#808080" stop-opacity="0.1"/>
</linearGradient>
<clipPath id="clip0_3_144">
<rect width="450" height="318" fill="white"/>
</clipPath>
</defs>
</svg>
