<svg width="294" height="336" viewBox="0 0 294 336" fill="none" xmlns="http://www.w3.org/2000/svg">
<g clip-path="url(#clip0_3_310)">
<path d="M141.088 315.209L140.714 306.779C140.675 306.759 140.636 306.738 140.597 306.717C136.582 304.609 131.98 308.425 133.263 312.777C134.469 316.871 135.28 321.285 137.489 324.869C138.794 326.95 140.55 328.711 142.627 330.021C144.705 331.331 147.051 332.157 149.49 332.436L154.591 335.561C155.291 331.657 155.137 327.647 154.139 323.809C153.141 319.97 151.323 316.393 148.811 313.325C147.384 311.617 145.748 310.097 143.942 308.798C142.72 312.021 141.088 315.209 141.088 315.209Z" fill="#F2F2F2"/>
<path d="M95.4194 229.661C85.599 219.527 71.3677 213.715 56.3746 213.715L55.7963 213.717C45.9208 213.721 36.2215 211.1 27.6904 206.122L26.8027 205.605L27.5177 204.868C31.3886 200.86 34.6208 196.282 37.101 191.291C35.3395 192.935 33.2385 194.171 30.9468 194.911C28.655 195.652 26.2285 195.88 23.8391 195.578C21.3164 195.277 18.8946 194.409 16.7553 193.038C14.616 191.667 12.8147 189.829 11.4866 187.662C6.24642 179.154 0 167.083 0 157.887C0.0081572 150.114 1.63471 142.428 4.77599 135.319C7.91727 128.21 12.5044 121.833 18.2449 116.596C21.8791 113.317 24.782 109.309 26.7641 104.832C28.7463 100.356 29.7633 95.5112 29.7488 90.6149L29.7459 89.9181C29.7449 83.4718 30.5322 77.0495 32.0902 70.7945L32.2484 70.1629L32.8979 70.1856C37.0862 70.3282 41.2767 69.977 45.383 69.1391C41.5313 68.6663 37.7634 67.6636 34.186 66.1592L33.4873 65.8764L33.7244 65.16C50.0702 55.0333 86.9674 60.2774 108.384 11.2495C125.749 -28.5055 187.021 46.54 187.021 89.9181C187.021 94.3443 182.643 100.194 185.921 103.119C221.348 134.744 196.904 155.052 189.197 175.486C187.368 180.334 191.333 185.657 191.333 190.902C191.333 191.792 191.31 192.711 191.265 193.633L191.197 195.05L190.016 194.263C187.679 192.732 185.513 190.954 183.555 188.961C185.586 193.639 186.544 198.713 186.357 203.81C186.17 208.908 184.842 213.898 182.473 218.415C178.761 225.426 175.169 230.446 171.798 233.333C160.999 242.58 147.077 247.35 132.88 246.667C118.683 245.985 105.283 239.901 95.4194 229.661Z" fill="#DDE5B6"/>
<path d="M154.732 335.146C154.974 335.145 155.207 335.058 155.389 334.899C155.571 334.741 155.691 334.522 155.725 334.283C155.767 333.983 159.943 303.85 156.193 263.801C152.729 226.814 141.607 173.541 108.288 129.789C108.209 129.684 108.109 129.596 107.995 129.529C107.881 129.463 107.755 129.419 107.624 129.402C107.494 129.384 107.361 129.392 107.233 129.426C107.106 129.459 106.986 129.518 106.881 129.598C106.776 129.678 106.688 129.778 106.622 129.892C106.556 130.006 106.513 130.132 106.495 130.263C106.477 130.394 106.486 130.527 106.52 130.654C106.553 130.782 106.612 130.901 106.692 131.006C139.723 174.381 150.755 227.263 154.194 263.988C157.923 303.804 153.78 333.703 153.738 334C153.717 334.142 153.728 334.288 153.769 334.426C153.81 334.564 153.88 334.691 153.974 334.8C154.068 334.908 154.185 334.995 154.316 335.055C154.446 335.115 154.589 335.146 154.732 335.146Z" fill="#3F3D56"/>
<path d="M127.543 191.504C127.755 191.504 127.961 191.437 128.133 191.312C128.304 191.188 128.432 191.012 128.498 190.81C128.563 190.609 128.563 190.391 128.498 190.19C128.432 189.988 128.305 189.812 128.133 189.687C128.012 189.6 115.824 180.812 97.6015 174.136C80.7565 167.965 55.1412 162.371 28.7708 170.769C28.645 170.809 28.5283 170.873 28.4274 170.958C28.3265 171.043 28.2433 171.147 28.1826 171.264C28.1219 171.381 28.0849 171.509 28.0738 171.641C28.0626 171.772 28.0774 171.905 28.1174 172.03C28.1574 172.156 28.2218 172.273 28.3069 172.374C28.3919 172.474 28.4961 172.558 28.6133 172.618C28.7305 172.679 28.8585 172.715 28.9899 172.726C29.1214 172.737 29.2537 172.722 29.3793 172.682C55.2095 164.457 80.3604 169.959 96.9114 176.022C114.873 182.602 126.835 191.226 126.953 191.312C127.125 191.437 127.331 191.504 127.543 191.504Z" fill="#3F3D56"/>
<path d="M173.469 77.0519C173.484 76.8403 173.432 76.6294 173.32 76.4492C173.208 76.269 173.043 76.1289 172.846 76.0489C172.65 75.9689 172.433 75.9532 172.228 76.0039C172.022 76.0547 171.837 76.1694 171.701 76.3315C171.604 76.4459 161.967 87.9774 154 105.682C146.636 122.049 139.215 147.21 145.687 174.132C145.749 174.391 145.911 174.615 146.138 174.754C146.365 174.893 146.638 174.936 146.897 174.873C147.156 174.811 147.379 174.649 147.518 174.422C147.657 174.194 147.7 173.921 147.638 173.663C141.299 147.292 148.594 122.588 155.83 106.507C163.683 89.0545 173.14 77.7383 173.235 77.626C173.372 77.4642 173.453 77.2632 173.469 77.0519Z" fill="#3F3D56"/>
<path d="M172.111 128.823C172.957 135.658 177.69 141.293 184.573 141.293C187.879 141.293 191.048 139.98 193.386 137.641C195.723 135.302 197.036 132.131 197.036 128.823C197.036 121.936 191.427 116.99 184.573 116.353C177.301 115.678 171.024 120.049 172.111 128.823Z" fill="#2F2E41"/>
<path d="M190.345 329.653L195.091 329.653L197.349 311.336L190.344 311.337L190.345 329.653Z" fill="#FFB6B6"/>
<path d="M190.179 334.607L204.773 334.606V334.422C204.773 332.914 204.174 331.469 203.109 330.403C202.044 329.337 200.599 328.738 199.092 328.738H199.092L196.426 326.714L191.452 328.738L190.178 328.738L190.179 334.607Z" fill="#2F2E41"/>
<path d="M171.651 329.653L176.397 329.653L178.655 311.336L171.65 311.337L171.651 329.653Z" fill="#FFB6B6"/>
<path d="M171.485 334.607L186.079 334.606V334.422C186.079 332.914 185.48 331.469 184.415 330.403C183.35 329.337 181.905 328.738 180.398 328.738H180.398L177.732 326.714L172.758 328.738L171.484 328.738L171.485 334.607Z" fill="#2F2E41"/>
<path d="M206.677 214.933L210.033 226.444L206.08 275.195C206.08 275.195 208.115 278.243 206.677 278.243C205.239 278.243 203.395 278.919 204.557 280.739C205.719 282.559 201.748 289.094 201.748 289.094L196.132 323.806L188.976 323.7C188.976 323.7 185.338 321.672 187.379 319.622C189.421 317.571 190.859 317.571 188.942 315.653C187.025 313.734 187.025 314.312 187.025 312.824C187.025 311.336 185.104 293.152 189.659 286.177L188.286 257.738L185.054 285.633L178.397 322.847L171.503 322.79C171.503 322.79 168.319 319.719 168.325 317.446C168.331 315.173 170.292 314.984 168.832 313.64C167.372 312.295 167.372 291.642 171.686 280.161C171.686 280.161 174.126 273.747 171.68 271.549C169.235 269.351 171.677 266.836 171.677 266.836C171.677 266.836 175.551 265.435 171.674 261.398C167.797 257.36 171.653 228.808 171.653 228.808C171.653 228.808 167.414 217.283 171.707 212.751C176 208.219 206.677 214.933 206.677 214.933Z" fill="#2F2E41"/>
<path d="M146.917 234.765L152.903 220.289L157.62 222.911L154.771 237.637C155.057 238.57 155.076 239.564 154.828 240.507C154.579 241.451 154.073 242.306 153.365 242.977C152.658 243.649 151.777 244.109 150.822 244.307C149.867 244.505 148.876 244.432 147.961 244.097C147.045 243.762 146.24 243.179 145.638 242.411C145.036 241.644 144.659 240.724 144.551 239.755C144.442 238.785 144.606 237.804 145.024 236.923C145.442 236.042 146.097 235.294 146.917 234.765Z" fill="#FFB6B6"/>
<path d="M247.372 120.295L238.264 133.037L234.263 129.414L240.372 115.717C240.306 114.744 240.512 113.771 240.967 112.909C241.423 112.046 242.11 111.328 242.951 110.834C243.792 110.341 244.754 110.092 245.729 110.116C246.704 110.14 247.653 110.435 248.469 110.969C249.285 111.503 249.936 112.254 250.349 113.138C250.762 114.021 250.921 115.003 250.807 115.972C250.693 116.941 250.311 117.859 249.704 118.622C249.098 119.386 248.29 119.965 247.372 120.295Z" fill="#FFB6B6"/>
<path d="M207.581 216.113C213.489 225.283 183.791 236.919 172.396 232.248C170.401 231.43 163.537 228.728 168.229 224.982C172.92 221.236 167.685 220.709 167.561 218.27C167.478 216.64 168.74 213.063 167.423 213.217C166.107 213.37 164.567 211.115 167.433 210.145C170.3 209.175 167.464 208.29 167.489 207.369C167.763 197.319 175.47 181.332 175.47 181.332L161.583 216.851C161.583 216.851 161.686 222.996 159.915 221.118C158.144 219.241 158.273 225.318 158.273 225.318C158.273 225.318 155.639 227.157 157.154 228.18C158.668 229.204 155.523 232.35 155.523 232.35L148.187 231.826C148.187 231.826 148.301 226.372 149.554 225.166C150.807 223.96 150.192 222.062 150.192 222.062C150.192 222.062 153.453 219.173 151.267 216.828C148.454 213.811 158.708 162.856 162.246 163.361C162.747 160.925 163.91 158.675 165.609 156.859C167.308 155.043 169.475 153.733 171.871 153.073L179.796 150.889L181.203 145.303H192.361L194.305 148.974L202.788 152.804C204.386 150.548 205.58 148.171 212.123 147.401C212.123 147.401 229.754 131.349 228.893 130.096C228.033 128.843 230.766 125.908 230.766 125.908C230.766 125.908 233.1 125.144 231.783 124.736C230.466 124.328 232.955 123.384 232.955 123.384C232.955 123.384 235.261 122.778 234.173 121.98C233.086 121.182 237.803 120.657 237.803 120.657L243.922 125.653L242.685 127.752C242.685 127.752 243.439 130.609 242.455 129.566C241.471 128.523 241.286 131.55 241.286 131.55C241.286 131.55 240.783 134.865 237.803 135.864C234.822 136.863 232.562 146.352 232.562 146.352C225.533 155.497 217.237 162.631 207.406 167.327C211.238 171.727 207.581 216.113 207.581 216.113Z" fill="#6C584C"/>
<path d="M185.951 142.034C192.054 142.034 197.002 137.083 197.002 130.976C197.002 124.869 192.054 119.918 185.951 119.918C179.847 119.918 174.899 124.869 174.899 130.976C174.899 137.083 179.847 142.034 185.951 142.034Z" fill="#FFB6B6"/>
<path d="M174.507 132.181C174.857 134.584 176.904 137.936 176.425 137.936C175.945 137.936 172.537 128.03 175.945 127.385C178.417 126.916 178.97 127.327 181.28 126.325L180.954 126.632C182.483 127.744 184.612 127.058 186.356 126.334C188.106 125.615 190.229 124.929 191.763 126.037C192.727 126.732 193.134 127.941 193.733 128.967C194.332 129.999 195.44 130.972 196.58 130.656C197.496 130.401 198.023 129.375 198.018 128.425C198.014 127.476 196.778 126.572 197.194 125.72C198.427 123.195 197.318 121.474 194.63 120.286C193.652 120.138 192.674 119.986 191.696 119.831C192.208 119.121 192.83 118.496 193.537 117.979C193.238 117.213 192.721 116.551 192.051 116.075C191.269 115.61 190.301 115.644 189.395 115.692C187.373 115.797 185.351 115.903 183.332 116.008C181.836 116.085 180.288 116.176 178.951 116.862C177.283 117.72 176.19 119.394 175.394 121.097C173.611 124.924 173.894 128.003 174.507 132.181Z" fill="#2F2E41"/>
<path d="M128.534 335.853L237.223 336C237.374 336 237.519 335.94 237.626 335.833C237.733 335.726 237.794 335.58 237.794 335.429C237.794 335.277 237.733 335.132 237.626 335.025C237.519 334.918 237.374 334.858 237.223 334.858L128.534 334.71C128.383 334.71 128.238 334.771 128.131 334.878C128.024 334.985 127.963 335.13 127.963 335.282C127.963 335.433 128.024 335.578 128.131 335.685C128.238 335.792 128.383 335.853 128.534 335.853Z" fill="#CACACA"/>
<path d="M89.2242 286.073C89.4246 284.695 87.9822 283.344 86.0026 283.056C84.023 282.768 82.2557 283.651 82.0554 285.029C81.855 286.407 83.2974 287.758 85.277 288.046C87.2566 288.334 89.0238 287.451 89.2242 286.073Z" fill="#E6E6E6"/>
<path d="M112.794 283.772C112.994 282.394 111.552 281.043 109.572 280.755C107.592 280.467 105.825 281.35 105.625 282.728C105.425 284.106 106.867 285.457 108.846 285.745C110.826 286.033 112.593 285.15 112.794 283.772Z" fill="#3F3D56"/>
<path d="M82.7702 266.98C82.9706 265.602 81.5282 264.252 79.5486 263.963C77.569 263.675 75.8018 264.559 75.6014 265.937C75.401 267.314 76.8434 268.665 78.823 268.953C80.8026 269.242 82.5698 268.358 82.7702 266.98Z" fill="#FF6584"/>
<path d="M72.5286 259.16C72.5382 257.895 71.833 256.864 70.9535 256.857C70.074 256.85 69.3533 257.871 69.3437 259.136C69.3342 260.401 70.0394 261.431 70.9189 261.438C71.7984 261.445 72.5191 260.425 72.5286 259.16Z" fill="#E6E6E6"/>
<path d="M69.0555 244.593C69.0651 243.328 68.3599 242.297 67.4804 242.29C66.6009 242.284 65.8802 243.304 65.8706 244.569C65.8611 245.834 66.5663 246.865 67.4458 246.871C68.3253 246.878 69.046 245.858 69.0555 244.593Z" fill="#3F3D56"/>
<path d="M96.0636 270.229C96.0731 268.964 95.3679 267.933 94.4885 267.927C93.609 267.92 92.8883 268.94 92.8787 270.205C92.8691 271.47 93.5744 272.501 94.4538 272.508C95.3333 272.514 96.054 271.494 96.0636 270.229Z" fill="#E6E6E6"/>
<path d="M84.6737 275.919C84.6833 274.654 83.9781 273.624 83.0986 273.617C82.2191 273.61 81.4984 274.63 81.4889 275.895C81.4793 277.16 82.1845 278.191 83.064 278.198C83.9435 278.204 84.6642 277.184 84.6737 275.919Z" fill="#FF6584"/>
<path d="M100.529 286.436C100.538 285.171 99.8332 284.14 98.9537 284.134C98.0742 284.127 97.3535 285.147 97.3439 286.412C97.3343 287.677 98.0396 288.708 98.9191 288.715C99.7985 288.721 100.519 287.701 100.529 286.436Z" fill="#3F3D56"/>
<path d="M270.412 212.212C270.612 210.834 269.17 209.483 267.19 209.195C265.211 208.907 263.443 209.79 263.243 211.168C263.043 212.546 264.485 213.897 266.465 214.185C268.444 214.473 270.212 213.59 270.412 212.212Z" fill="#E6E6E6"/>
<path d="M293.981 209.911C294.182 208.533 292.739 207.182 290.76 206.894C288.78 206.606 287.013 207.489 286.813 208.867C286.612 210.245 288.055 211.596 290.034 211.884C292.014 212.172 293.781 211.289 293.981 209.911Z" fill="#3F3D56"/>
<path d="M263.958 193.119C264.158 191.742 262.716 190.391 260.736 190.103C258.756 189.814 256.989 190.698 256.789 192.076C256.588 193.454 258.031 194.804 260.01 195.093C261.99 195.381 263.757 194.497 263.958 193.119Z" fill="#FF6584"/>
<path d="M253.716 185.299C253.726 184.034 253.021 183.003 252.141 182.996C251.262 182.99 250.541 184.01 250.531 185.275C250.522 186.54 251.227 187.571 252.107 187.577C252.986 187.584 253.707 186.564 253.716 185.299Z" fill="#E6E6E6"/>
<path d="M250.243 170.732C250.253 169.467 249.548 168.436 248.668 168.43C247.789 168.423 247.068 169.443 247.058 170.708C247.049 171.973 247.754 173.004 248.633 173.011C249.513 173.017 250.234 171.997 250.243 170.732Z" fill="#3F3D56"/>
<path d="M277.251 196.368C277.261 195.103 276.556 194.073 275.676 194.066C274.797 194.059 274.076 195.079 274.066 196.344C274.057 197.609 274.762 198.64 275.642 198.647C276.521 198.654 277.242 197.633 277.251 196.368Z" fill="#E6E6E6"/>
<path d="M265.861 202.059C265.871 200.794 265.166 199.763 264.286 199.756C263.407 199.749 262.686 200.769 262.677 202.034C262.667 203.299 263.372 204.33 264.252 204.337C265.131 204.344 265.852 203.324 265.861 202.059Z" fill="#FF6584"/>
<path d="M281.717 212.576C281.726 211.311 281.021 210.28 280.141 210.273C279.262 210.266 278.541 211.286 278.532 212.551C278.522 213.816 279.227 214.847 280.107 214.854C280.986 214.861 281.707 213.841 281.717 212.576Z" fill="#3F3D56"/>
<path d="M182.694 75.5216C182.894 74.1436 181.452 72.793 179.472 72.5048C177.493 72.2166 175.726 73.1 175.525 74.4779C175.325 75.8558 176.767 77.2065 178.747 77.4947C180.726 77.7829 182.494 76.8995 182.694 75.5216Z" fill="white"/>
<path d="M206.264 73.2203C206.464 71.8424 205.022 70.4917 203.042 70.2035C201.062 69.9153 199.295 70.7987 199.095 72.1767C198.894 73.5546 200.337 74.9053 202.316 75.1935C204.296 75.4817 206.063 74.5983 206.264 73.2203Z" fill="#3F3D56"/>
<path d="M176.24 56.429C176.44 55.051 174.998 53.7004 173.018 53.4122C171.039 53.124 169.272 54.0074 169.071 55.3853C168.871 56.7633 170.313 58.1139 172.293 58.4021C174.272 58.6903 176.04 57.8069 176.24 56.429Z" fill="#FF6584"/>
<path d="M165.998 48.6084C166.008 47.3434 165.303 46.3125 164.423 46.3058C163.544 46.2992 162.823 47.3193 162.814 48.5843C162.804 49.8493 163.509 50.8802 164.389 50.8868C165.268 50.8935 165.989 49.8734 165.998 48.6084Z" fill="#E6E6E6"/>
<path d="M162.525 34.0417C162.535 32.7767 161.83 31.7458 160.95 31.7392C160.071 31.7325 159.35 32.7526 159.34 34.0176C159.331 35.2826 160.036 36.3135 160.916 36.3202C161.795 36.3268 162.516 35.3067 162.525 34.0417Z" fill="#3F3D56"/>
<path d="M189.533 59.6781C189.543 58.4131 188.838 57.3822 187.958 57.3755C187.079 57.3689 186.358 58.389 186.349 59.654C186.339 60.919 187.044 61.9499 187.924 61.9565C188.803 61.9632 189.524 60.9431 189.533 59.6781Z" fill="#E6E6E6"/>
<path d="M178.144 65.3683C178.153 64.1032 177.448 63.0724 176.569 63.0657C175.689 63.0591 174.968 64.0792 174.959 65.3442C174.949 66.6092 175.654 67.64 176.534 67.6467C177.413 67.6533 178.134 66.6333 178.144 65.3683Z" fill="#FF6584"/>
<path d="M193.999 75.8851C194.008 74.6201 193.303 73.5892 192.424 73.5826C191.544 73.5759 190.823 74.596 190.814 75.861C190.804 77.126 191.509 78.1569 192.389 78.1635C193.268 78.1702 193.989 77.1501 193.999 75.8851Z" fill="#3F3D56"/>
</g>
<defs>
<clipPath id="clip0_3_310">
<rect width="294" height="336" fill="white"/>
</clipPath>
</defs>
</svg>
