<svg width="643" height="700" viewBox="0 0 643 700" fill="none" xmlns="http://www.w3.org/2000/svg">
<g clip-path="url(#clip0_5_26)">
<path d="M526.369 329.639C546.269 342.469 564.909 359.649 582.369 380.839V413.239C573.849 410.339 541.329 398.319 528.489 379.309C513.649 357.339 511.009 323.989 523.369 315.639C526.589 313.469 530.499 313.199 534.789 314.389C548.319 324.119 561.259 335.919 573.619 349.669C577.999 356.399 580.709 364.969 582.369 373.629V374.039C566.379 351.779 547.579 337.339 526.369 329.639Z" fill="#6C584C"/>
<path d="M525.369 130.639C545.269 143.469 563.909 160.649 581.369 181.839V189.239C579.699 188.669 577.119 187.759 573.939 186.509C559.659 169.579 543.379 158.179 525.369 151.639C537.969 159.759 550.069 169.629 561.679 181.159C549.399 175.249 535.039 166.489 527.489 155.309C526.689 154.129 525.929 152.939 525.209 151.739C512.509 130.659 511.669 107.539 523.369 99.6387C535.729 91.2886 557.399 103.119 572.239 125.079C580.819 137.789 583.229 157.509 583.719 171.859C582.929 172.899 582.149 173.959 581.369 175.039C565.379 152.779 546.579 138.339 525.369 130.639V130.639Z" fill="#6C584C"/>
<path d="M638.649 248.844V248.854C637.229 252.784 635.449 256.754 633.329 260.664C630.179 266.484 625.339 271.884 619.859 276.714C613.989 281.894 607.369 286.414 601.279 290.084C592.779 295.214 585.309 298.694 582.369 300.014V296.864C599.259 276.764 617.219 260.384 636.369 248.044C616.029 255.424 597.919 269.024 582.369 289.754V275.864C599.259 255.764 617.219 239.384 636.369 227.044C616.029 234.424 597.919 248.024 582.369 268.754V254.864C599.039 235.034 616.739 218.824 635.609 206.544C644.449 213.654 645.219 230.804 638.649 248.844V248.844Z" fill="#6C584C"/>
<path d="M143.685 389.23C223.039 389.23 287.369 324.9 287.369 245.545C287.369 166.191 223.039 101.861 143.685 101.861C64.3298 101.861 0 166.191 0 245.545C0 324.9 64.3298 389.23 143.685 389.23Z" fill="#DDE5B6"/>
<path d="M593.865 475.911C605.951 486.091 610.494 500.579 604.014 508.269C597.534 515.959 582.486 513.939 570.398 503.753C565.514 499.751 561.659 494.637 559.156 488.839L508.495 445.058L529.547 421.722L577.254 467.36C583.395 468.843 589.091 471.775 593.865 475.911Z" fill="#FCB4B4"/>
<path d="M552.958 443.519L491.027 363.994L432.369 256.639L430.848 405.529L518.774 477.745L552.958 443.519Z" fill="#2F2E41"/>
<path d="M283.556 224.624L297.743 160.118L345.163 162.399L357.336 209.194L283.556 224.624Z" fill="#FCB4B4"/>
<path opacity="0.1" d="M283.556 224.624L297.743 160.118L345.163 162.399L357.336 209.194L283.556 224.624Z" fill="black"/>
<path d="M320.28 177.426C349.6 177.426 373.368 153.658 373.368 124.338C373.368 95.0178 349.6 71.2493 320.28 71.2493C290.96 71.2493 267.191 95.0178 267.191 124.338C267.191 153.658 290.96 177.426 320.28 177.426Z" fill="#FCB4B4"/>
<path d="M296.533 144.84V144.84C296.533 144.84 291.177 144.788 280.037 142.716C268.897 140.645 288.239 166.676 288.239 166.676C235.815 144.786 252.591 89.262 252.591 89.262C199.386 79.087 221.675 31.7895 221.675 31.7895C221.675 31.7895 239.212 -2.05508 293.126 0.0985918C347.039 2.25226 321.569 55.4257 321.569 55.4257C356.695 55.4923 360.647 87.1487 360.647 87.1487C360.647 87.1487 347.984 88.7295 324.972 94.57C301.96 100.41 296.533 144.84 296.533 144.84L296.533 144.84L296.533 144.84H296.533Z" fill="#2F2E41"/>
<path d="M294.428 204.308L292.031 199.639C292.031 199.639 249.369 204.584 242.369 211.111C235.369 217.639 219.369 246.639 219.369 246.639L254.369 276.639L294.428 204.308Z" fill="#FFB6B6"/>
<path d="M347.369 203.174C347.369 203.174 379.369 194.639 397.369 212.639C415.369 230.639 436.369 263.639 436.369 263.639L435.369 289.639L385.369 265.536L347.369 203.174V203.174Z" fill="#FFB6B6"/>
<path d="M355.527 199.639C355.527 199.639 397.369 184.639 424.369 216.639C451.369 248.639 459.369 349.639 459.369 349.639C459.369 349.639 520.369 536.639 505.369 538.639C490.369 540.639 398.829 546.166 398.829 546.166L367.369 342.639L353.369 199.639H355.527Z" fill="#2F2E41"/>
<path d="M259.369 379.639L249.369 415.639L385.369 425.639C385.369 425.639 380.369 395.544 385.369 384.591L259.369 379.639Z" fill="#FCB4B4"/>
<path d="M336.369 613.639L342.369 699.639L417.889 697.639L415.369 610.639L336.369 613.639Z" fill="#FCB4B4"/>
<path d="M218.545 605.132L196.369 698.639L275.428 698.104L295.57 621.673L218.545 605.132Z" fill="#FCB4B4"/>
<path d="M353.369 199.639H292.031L242.369 265.639L253.369 400.639C253.369 400.639 278.369 393.639 313.369 393.639H388.369C388.369 393.639 377.369 358.639 391.369 344.639C405.369 330.639 395.369 265.639 395.369 265.639L353.369 199.639Z" fill="#6C584C"/>
<path d="M244.369 404.639L188.369 607.639C188.369 607.639 270.829 640.773 320.599 631.206C370.369 621.639 438.369 618.639 438.369 618.639L390.369 412.639L244.369 404.639Z" fill="#2F2E41"/>
<path d="M373.865 478.911C385.951 489.091 390.494 503.579 384.014 511.269C377.534 518.959 362.486 516.939 350.398 506.753C345.514 502.751 341.659 497.637 339.156 491.839L288.495 448.058L309.547 424.722L357.254 470.36C363.395 471.843 369.091 474.775 373.865 478.911Z" fill="#FCB4B4"/>
<path d="M342.958 443.519L281.027 363.994L222.369 256.639L220.848 405.529L308.774 477.745L342.958 443.519Z" fill="#2F2E41"/>
<path d="M296.212 199.639C296.212 199.639 254.369 184.639 227.369 216.639C200.369 248.639 192.369 349.639 192.369 349.639C192.369 349.639 131.369 536.639 146.369 538.639C161.369 540.639 252.909 546.166 252.909 546.166L284.369 342.639L298.369 199.639H296.212Z" fill="#2F2E41"/>
<path d="M583.369 161.639H581.369V509.639H583.369V161.639Z" fill="#3F3D56"/>
<path d="M27.3693 518.639C47.2693 531.469 65.9093 548.649 83.3693 569.839V602.239C74.8493 599.339 42.3293 587.319 29.4893 568.309C14.6493 546.339 12.0093 512.989 24.3693 504.639C27.5892 502.469 31.4993 502.199 35.7893 503.389C49.3192 513.119 62.2593 524.919 74.6193 538.669C78.9993 545.399 81.7094 553.969 83.3693 562.629V563.039C67.3793 540.779 48.5792 526.339 27.3693 518.639Z" fill="#6C584C"/>
<path d="M26.3693 319.639C46.2693 332.469 64.9093 349.649 82.3693 370.839V378.239C80.6993 377.669 78.1193 376.759 74.9393 375.509C60.6593 358.579 44.3793 347.179 26.3693 340.639C38.9693 348.759 51.0692 358.629 62.6793 370.159C50.3993 364.249 36.0392 355.489 28.4893 344.309C27.6893 343.129 26.9293 341.939 26.2093 340.739C13.5093 319.659 12.6693 296.539 24.3693 288.639C36.7293 280.289 58.3993 292.119 73.2393 314.079C81.8192 326.789 84.2293 346.509 84.7193 360.859C83.9293 361.899 83.1493 362.959 82.3693 364.039C66.3793 341.779 47.5792 327.339 26.3693 319.639Z" fill="#6C584C"/>
<path d="M139.649 437.844V437.854C138.229 441.784 136.449 445.754 134.329 449.664C131.179 455.484 126.339 460.884 120.859 465.714C114.989 470.894 108.369 475.414 102.279 479.084C93.7792 484.214 86.3092 487.694 83.3693 489.014V485.864C100.259 465.764 118.219 449.384 137.369 437.044C117.029 444.424 98.9193 458.024 83.3693 478.754V464.864C100.259 444.764 118.219 428.384 137.369 416.044C117.029 423.424 98.9193 437.024 83.3693 457.754V443.864C100.039 424.034 117.739 407.824 136.609 395.544C145.449 402.654 146.219 419.804 139.649 437.844Z" fill="#6C584C"/>
<path d="M84.3693 350.639H82.3693V698.639H84.3693V350.639Z" fill="#3F3D56"/>
</g>
<defs>
<clipPath id="clip0_5_26">
<rect width="642.997" height="699.639" fill="white"/>
</clipPath>
</defs>
</svg>
