<svg width="946" height="582" viewBox="0 0 946 582" fill="none" xmlns="http://www.w3.org/2000/svg">
<g clip-path="url(#clip0_10_41)">
<path d="M315.156 164.239H313.476V179.748H315.156V164.239Z" fill="#F2F2F2"/>
<path d="M366.396 164.239H364.716V179.748H366.396V164.239Z" fill="#F2F2F2"/>
<path d="M326.915 96.7519H325.235V112.261H326.915V96.7519Z" fill="#F2F2F2"/>
<path d="M320.196 449.277H318.516V464.787H320.196V449.277Z" fill="#F2F2F2"/>
<path d="M229.475 381.79H227.795V397.3H229.475V381.79Z" fill="#F2F2F2"/>
<path d="M214.355 410.713H96.7539V412.39H214.355V410.713Z" fill="#F2F2F2"/>
<path d="M130.354 395.623H128.674V411.132H130.354V395.623Z" fill="#F2F2F2"/>
<path d="M181.595 395.623H179.915V411.132H181.595V395.623Z" fill="#F2F2F2"/>
<path d="M90.8739 328.136H89.1938V343.645H90.8739V328.136Z" fill="#F2F2F2"/>
<path d="M676.358 63.218H674.678V78.7274H676.358V63.218Z" fill="#F2F2F2"/>
<path d="M677.198 395.623H675.518V411.132H677.198V395.623Z" fill="#F2F2F2"/>
<path d="M252.995 145.795H135.394V147.472H252.995V145.795Z" fill="#ADC178"/>
<path d="M168.994 130.705H167.314V146.214H168.994V130.705Z" fill="#ADC178"/>
<path d="M220.235 130.705H218.555V146.214H220.235V130.705Z" fill="#ADC178"/>
<path d="M212.675 61.9605H95.0737V63.6372H212.675V61.9605Z" fill="#ADC178"/>
<path d="M180.754 63.218H179.074V78.7274H180.754V63.218Z" fill="#ADC178"/>
<path d="M129.514 63.218H127.834V78.7274H129.514V63.218Z" fill="#ADC178"/>
<path d="M399.156 179.329H281.555V181.006H399.156V179.329Z" fill="#ADC178"/>
<path d="M358.836 95.4944H241.235V97.1711H358.836V95.4944Z" fill="#ADC178"/>
<path d="M275.675 96.7519H273.995V112.261H275.675V96.7519Z" fill="#ADC178"/>
<path d="M352.956 464.368H235.355V466.044H352.956V464.368Z" fill="#ADC178"/>
<path d="M268.955 449.277H267.275V464.787H268.955V449.277Z" fill="#ADC178"/>
<path d="M312.636 380.533H195.035V382.209H312.636V380.533Z" fill="#ADC178"/>
<path d="M280.715 381.79H279.035V397.3H280.715V381.79Z" fill="#ADC178"/>
<path d="M299.196 283.284H181.595V284.961H299.196V283.284Z" fill="#ADC178"/>
<path d="M215.195 268.194H213.515V283.704H215.195V268.194Z" fill="#ADC178"/>
<path d="M266.435 268.194H264.755V283.704H266.435V268.194Z" fill="#ADC178"/>
<path d="M258.875 199.45H141.274V201.126H258.875V199.45Z" fill="#ADC178"/>
<path d="M226.955 200.707H225.275V216.217H226.955V200.707Z" fill="#ADC178"/>
<path d="M175.715 200.707H174.035V216.217H175.715V200.707Z" fill="#ADC178"/>
<path d="M174.034 326.878H56.4336V328.555H174.034V326.878Z" fill="#ADC178"/>
<path d="M142.114 328.136H140.434V343.645H142.114V328.136Z" fill="#ADC178"/>
<path d="M799.839 145.795H682.238V147.472H799.839V145.795Z" fill="#ADC178"/>
<path d="M715.838 130.705H714.158V146.214H715.838V130.705Z" fill="#ADC178"/>
<path d="M767.078 130.705H765.398V146.214H767.078V130.705Z" fill="#ADC178"/>
<path d="M759.519 61.9605H641.918V63.6372H759.519V61.9605Z" fill="#ADC178"/>
<path d="M727.598 63.218H725.918V78.7274H727.598V63.218Z" fill="#ADC178"/>
<path d="M946 179.329H828.399V181.006H946V179.329Z" fill="#ADC178"/>
<path d="M861.999 164.239H860.319V179.748H861.999V164.239Z" fill="#ADC178"/>
<path d="M913.24 164.239H911.56V179.748H913.24V164.239Z" fill="#ADC178"/>
<path d="M905.679 95.4944H788.079V97.1711H905.679V95.4944Z" fill="#ADC178"/>
<path d="M873.76 96.7519H872.08V112.261H873.76V96.7519Z" fill="#ADC178"/>
<path d="M822.519 96.7519H820.839V112.261H822.519V96.7519Z" fill="#ADC178"/>
<path d="M899.8 464.368H782.199V466.044H899.8V464.368Z" fill="#ADC178"/>
<path d="M815.799 449.277H814.119V464.787H815.799V449.277Z" fill="#ADC178"/>
<path d="M867.039 449.277H865.359V464.787H867.039V449.277Z" fill="#ADC178"/>
<path d="M859.479 380.533H741.878V382.209H859.479V380.533Z" fill="#ADC178"/>
<path d="M827.559 381.79H825.879V397.3H827.559V381.79Z" fill="#ADC178"/>
<path d="M776.319 381.79H774.639V397.3H776.319V381.79Z" fill="#ADC178"/>
<path d="M846.039 283.284H728.438V284.961H846.039V283.284Z" fill="#ADC178"/>
<path d="M762.038 268.194H760.358V283.704H762.038V268.194Z" fill="#ADC178"/>
<path d="M813.279 268.194H811.599V283.704H813.279V268.194Z" fill="#ADC178"/>
<path d="M805.719 199.45H688.118V201.126H805.719V199.45Z" fill="#ADC178"/>
<path d="M773.799 200.707H772.119V216.217H773.799V200.707Z" fill="#ADC178"/>
<path d="M722.558 200.707H720.878V216.217H722.558V200.707Z" fill="#ADC178"/>
<path d="M761.199 410.713H643.598V412.39H761.199V410.713Z" fill="#ADC178"/>
<path d="M728.438 395.623H726.758V411.132H728.438V395.623Z" fill="#ADC178"/>
<path d="M720.878 326.878H603.277V328.555H720.878V326.878Z" fill="#ADC178"/>
<path d="M688.958 328.136H687.278V343.645H688.958V328.136Z" fill="#ADC178"/>
<path d="M637.718 328.136H636.038V343.645H637.718V328.136Z" fill="#F2F2F2"/>
<path d="M468.248 0H304.867V231.384H468.248V0Z" fill="#3F3D56"/>
<path d="M677.829 277.493H514.448V508.877H677.829V277.493Z" fill="#3F3D56"/>
<path d="M677.829 0H514.448V231.384H677.829V0Z" fill="#3F3D56"/>
<path d="M468.248 277.493H304.867V508.877H468.248V277.493Z" fill="#3F3D56"/>
<path d="M889.511 508.149H80.1572V510.027H889.511V508.149Z" fill="#2F2E41"/>
<path d="M95.7054 495.464H86.4653V573.43C86.4653 573.43 146.106 592.712 204.066 573.43V495.464H95.7054Z" fill="#3F3D56"/>
<path d="M144.426 504.686C176.436 504.686 202.386 500.745 202.386 495.883C202.386 491.021 176.436 487.08 144.426 487.08C112.415 487.08 86.4653 491.021 86.4653 495.883C86.4653 500.745 112.415 504.686 144.426 504.686Z" fill="#3F3D56"/>
<path opacity="0.1" d="M144.426 504.686C176.436 504.686 202.386 500.745 202.386 495.883C202.386 491.021 176.436 487.08 144.426 487.08C112.415 487.08 86.4653 491.021 86.4653 495.883C86.4653 500.745 112.415 504.686 144.426 504.686Z" fill="black"/>
<path d="M211.801 402.312C197.179 456.255 147.098 489.663 147.098 489.663C147.098 489.663 120.722 435.612 135.343 381.669C149.965 327.726 200.047 294.318 200.047 294.318C200.047 294.318 226.423 348.368 211.801 402.312Z" fill="#3F3D56"/>
<path d="M78.7856 402.312C93.4071 456.255 143.489 489.663 143.489 489.663C143.489 489.663 169.865 435.612 155.243 381.669C140.622 327.726 90.5399 294.318 90.5399 294.318C90.5399 294.318 64.1641 348.368 78.7856 402.312Z" fill="#6C584C"/>
<path d="M100.271 390.719C140.393 429.698 145.293 489.619 145.293 489.619C145.293 489.619 85.1438 486.342 45.0222 447.362C4.90059 408.382 0 348.461 0 348.461C0 348.461 60.1495 351.739 100.271 390.719Z" fill="#3F3D56"/>
<path d="M190.316 390.719C150.194 429.698 145.293 489.619 145.293 489.619C145.293 489.619 205.443 486.342 245.565 447.362C285.686 408.382 290.587 348.461 290.587 348.461C290.587 348.461 230.437 351.739 190.316 390.719Z" fill="#3F3D56"/>
<path d="M145.265 312.704C155.472 312.704 163.745 304.446 163.745 294.26C163.745 284.074 155.472 275.817 145.265 275.817C135.059 275.817 126.785 284.074 126.785 294.26C126.785 304.446 135.059 312.704 145.265 312.704Z" fill="#6C584C"/>
<path d="M369.547 126.591C370.939 126.591 372.067 125.465 372.067 124.076C372.067 122.687 370.939 121.56 369.547 121.56C368.156 121.56 367.027 122.687 367.027 124.076C367.027 125.465 368.156 126.591 369.547 126.591Z" fill="white"/>
<path d="M357.787 93.895C374.024 93.895 387.187 80.7581 387.187 64.5528C387.187 48.3476 374.024 35.2106 357.787 35.2106C341.55 35.2106 328.387 48.3476 328.387 64.5528C328.387 80.7581 341.55 93.895 357.787 93.895Z" fill="#F7F4E8"/>
<path d="M404.827 105.632C405.291 105.632 405.667 105.257 405.667 104.794C405.667 104.331 405.291 103.955 404.827 103.955C404.363 103.955 403.987 104.331 403.987 104.794C403.987 105.257 404.363 105.632 404.827 105.632Z" fill="white"/>
<path d="M552.669 147.549C553.133 147.549 553.509 147.174 553.509 146.711C553.509 146.248 553.133 145.873 552.669 145.873C552.205 145.873 551.829 146.248 551.829 146.711C551.829 147.174 552.205 147.549 552.669 147.549Z" fill="white"/>
<path d="M543.428 398.215C543.892 398.215 544.268 397.84 544.268 397.377C544.268 396.914 543.892 396.539 543.428 396.539C542.964 396.539 542.588 396.914 542.588 397.377C542.588 397.84 542.964 398.215 543.428 398.215Z" fill="white"/>
<path d="M366.187 456.061C366.651 456.061 367.027 455.686 367.027 455.223C367.027 454.76 366.651 454.385 366.187 454.385C365.723 454.385 365.347 454.76 365.347 455.223C365.347 455.686 365.723 456.061 366.187 456.061Z" fill="white"/>
<path d="M613.989 176.891C614.453 176.891 614.829 176.516 614.829 176.053C614.829 175.59 614.453 175.215 613.989 175.215C613.525 175.215 613.149 175.59 613.149 176.053C613.149 176.516 613.525 176.891 613.989 176.891Z" fill="white"/>
<path d="M605.589 106.47C606.053 106.47 606.429 106.095 606.429 105.632C606.429 105.169 606.053 104.794 605.589 104.794C605.125 104.794 604.749 105.169 604.749 105.632C604.749 106.095 605.125 106.47 605.589 106.47Z" fill="white"/>
<path d="M577.028 332.824C577.492 332.824 577.868 332.449 577.868 331.986C577.868 331.523 577.492 331.148 577.028 331.148C576.565 331.148 576.188 331.523 576.188 331.986C576.188 332.449 576.565 332.824 577.028 332.824Z" fill="white"/>
<path d="M531.668 207.072C532.132 207.072 532.508 206.697 532.508 206.234C532.508 205.771 532.132 205.395 531.668 205.395C531.204 205.395 530.828 205.771 530.828 206.234C530.828 206.697 531.204 207.072 531.668 207.072Z" fill="white"/>
<path d="M538.388 88.8649C538.852 88.8649 539.228 88.4896 539.228 88.0266C539.228 87.5636 538.852 87.1882 538.388 87.1882C537.924 87.1882 537.548 87.5636 537.548 88.0266C537.548 88.4896 537.924 88.8649 538.388 88.8649Z" fill="white"/>
<path d="M614.829 41.0791C615.293 41.0791 615.669 40.7037 615.669 40.2407C615.669 39.7777 615.293 39.4024 614.829 39.4024C614.365 39.4024 613.989 39.7777 613.989 40.2407C613.989 40.7037 614.365 41.0791 614.829 41.0791Z" fill="white"/>
<path d="M367.867 380.61C368.331 380.61 368.707 380.235 368.707 379.772C368.707 379.309 368.331 378.933 367.867 378.933C367.403 378.933 367.027 379.309 367.027 379.772C367.027 380.235 367.403 380.61 367.867 380.61Z" fill="white"/>
<path d="M440.108 444.325C440.572 444.325 440.948 443.949 440.948 443.486C440.948 443.023 440.572 442.648 440.108 442.648C439.644 442.648 439.268 443.023 439.268 443.486C439.268 443.949 439.644 444.325 440.108 444.325Z" fill="white"/>
<path d="M347.707 317.734C348.171 317.734 348.547 317.359 348.547 316.896C348.547 316.433 348.171 316.057 347.707 316.057C347.243 316.057 346.867 316.433 346.867 316.896C346.867 317.359 347.243 317.734 347.707 317.734Z" fill="white"/>
<path d="M368.707 207.072C369.171 207.072 369.547 206.697 369.547 206.234C369.547 205.771 369.171 205.395 368.707 205.395C368.243 205.395 367.867 205.771 367.867 206.234C367.867 206.697 368.243 207.072 368.707 207.072Z" fill="white"/>
<path opacity="0.1" d="M368.707 207.072L468.248 164.258V175.592L368.707 207.072Z" fill="white"/>
<path opacity="0.1" d="M677.829 74.1184V109.304L514.448 160.98V144.389L677.829 74.1184Z" fill="white"/>
<path opacity="0.1" d="M417.461 331.131L468.248 303.205V307.087C439.847 320.811 418.452 330.678 417.461 331.131Z" fill="white"/>
<path opacity="0.1" d="M515.019 277.493H527.83C523.386 279.782 518.925 282.054 514.448 284.309V277.812L515.019 277.493Z" fill="white"/>
<path opacity="0.1" d="M615.669 222.162C615.283 224.384 612.351 227.536 607.471 231.384H598.894L615.669 222.162Z" fill="white"/>
<path opacity="0.1" d="M677.829 372.528V378.447C634.216 400.169 594.375 418.537 593.022 419.157L677.829 372.528Z" fill="white"/>
<path d="M579.548 380.767C579.548 379.104 579.07 377.476 578.171 376.076C577.273 374.676 575.991 373.561 574.478 372.865L574.747 369.441H555.978L558.16 391.658H573.001L573.198 389.144C575.026 388.627 576.635 387.53 577.781 386.018C578.927 384.507 579.547 382.663 579.548 380.767ZM573.303 387.818L574.342 374.59C575.243 375.478 575.939 376.551 576.382 377.735C576.824 378.919 577.002 380.186 576.903 381.445C576.804 382.705 576.43 383.928 575.808 385.029C575.187 386.13 574.331 387.082 573.303 387.818Z" fill="#6C584C"/>
<path d="M559.313 362.684C559.313 362.684 581.506 378.505 574.108 384.833C566.71 391.162 551.915 365.848 551.915 365.848L559.313 362.684Z" fill="#FFB9B9"/>
<path d="M456.802 386.943C456.802 386.943 461.03 439.679 462.086 447.062C463.143 454.445 464.2 520.893 466.314 528.276C468.427 535.659 470.541 553.589 470.541 553.589H483.222C483.222 553.589 482.166 520.893 485.336 508.236C488.507 495.579 487.45 460.773 487.45 460.773C487.45 460.773 493.791 398.545 490.62 390.107C487.45 381.669 456.802 386.943 456.802 386.943Z" fill="#FFB9B9"/>
<path d="M473.711 550.425C473.711 550.425 468.427 553.589 468.427 555.699C468.427 557.808 469.484 563.082 468.427 565.191C467.371 567.301 459.973 575.738 464.2 577.848C468.427 579.957 487.45 577.848 487.45 577.848C487.45 577.848 486.393 563.082 485.336 562.027C484.28 560.972 486.393 550.425 486.393 550.425H473.711Z" fill="#2F2E41"/>
<path d="M537.589 385.65C537.589 385.65 538.932 438.538 538.657 445.991C538.383 453.444 544.32 519.635 542.995 527.199C541.669 534.763 541.453 552.815 541.453 552.815L528.842 554.144C528.842 554.144 526.454 521.517 521.97 509.263C517.486 497.008 514.876 462.284 514.876 462.284C514.876 462.284 502.025 401.063 504.291 392.34C506.556 383.616 537.589 385.65 537.589 385.65Z" fill="#FFB9B9"/>
<path d="M537.968 550.001C537.968 550.001 543.555 552.594 543.777 554.692C543.999 556.789 543.503 562.145 544.776 564.132C546.048 566.119 554.293 573.735 550.311 576.276C546.329 578.816 527.189 578.711 527.189 578.711C527.189 578.711 526.687 563.916 527.627 562.756C528.567 561.597 525.356 551.329 525.356 551.329L537.968 550.001Z" fill="#2F2E41"/>
<path d="M471.598 307.838C471.598 307.838 463.143 308.893 459.973 326.823C456.802 344.754 445.178 390.107 454.689 393.271C464.2 396.435 492.734 402.764 493.791 400.654C494.848 398.545 496.961 393.271 496.961 393.271C496.961 393.271 493.791 402.764 498.018 402.764C502.245 402.764 543.461 396.435 542.404 393.271C541.347 390.107 539.234 366.903 539.234 366.903C539.234 366.903 532.893 327.878 526.552 321.55C524.717 319.791 523.292 317.651 522.379 315.282C521.466 312.912 521.086 310.371 521.268 307.838H471.598Z" fill="#2F2E41"/>
<path d="M455.745 299.401C455.745 299.401 469.484 296.236 471.597 300.455C473.711 304.674 466.313 311.003 463.143 311.003C459.972 311.003 454.688 307.838 454.688 307.838L455.745 299.401Z" fill="#FFB9B9"/>
<path d="M504.384 208.365C514.89 208.365 523.407 199.865 523.407 189.38C523.407 178.895 514.89 170.395 504.384 170.395C493.878 170.395 485.361 178.895 485.361 189.38C485.361 199.865 493.878 208.365 504.384 208.365Z" fill="#FFB9B9"/>
<path d="M492.891 202.388C492.891 202.388 490.62 219.242 488.506 219.242C486.393 219.242 504.359 228.734 504.359 228.734L518.097 226.625L522.324 220.296C522.324 220.296 515.769 210.134 515.769 201.696C515.769 193.258 492.891 202.388 492.891 202.388Z" fill="#FFB9B9"/>
<path d="M496.961 219.242C496.961 219.242 493.79 217.132 492.734 217.132H484.279C483.222 217.132 469.484 220.296 469.484 220.296L461.029 267.759C461.029 267.759 475.825 292.017 465.257 311.002C465.257 311.002 468.427 308.893 483.222 309.948C498.018 311.003 524.438 314.167 525.495 314.167C526.552 314.167 526.552 305.729 525.495 303.619C524.438 301.51 526.552 302.565 526.552 297.291C526.552 292.017 529.722 282.525 529.722 282.525L544.517 228.734C544.517 228.734 525.495 218.187 522.324 219.241C519.154 220.296 509.643 223.46 507.529 222.406C505.415 221.351 496.961 219.242 496.961 219.242Z" fill="#A98467"/>
<path d="M472.655 221.351L469.484 220.296C469.484 220.296 463.143 219.241 455.746 225.57C448.348 231.898 420.871 250.883 420.871 250.883C420.871 250.883 410.303 259.321 413.473 268.814C416.644 278.306 421.928 301.51 437.78 300.455C437.78 300.455 447.291 313.112 452.575 311.003C457.859 308.893 462.087 300.455 458.916 299.401C455.746 298.346 447.291 287.799 447.291 287.799L457.859 267.759H461.03L472.655 261.431L472.655 221.351Z" fill="#A98467"/>
<path d="M536.063 227.679L544.517 228.734C544.517 228.734 551.915 231.898 550.858 245.61C549.801 259.321 557.199 321.55 554.029 328.933C554.029 328.933 564.597 364.793 562.483 365.848C560.369 366.903 547.688 373.231 548.745 369.012C549.801 364.793 537.12 335.261 537.12 335.261C537.12 335.261 522.324 319.44 528.665 297.291V279.361L536.063 227.679Z" fill="#A98467"/>
<path d="M553.705 206.427C551.347 203.099 548.447 200.191 545.959 196.959C540.222 189.508 538.238 179.58 530.54 173.866C522.922 168.212 510.834 162.648 501.302 163.093C488.739 163.681 478.774 173.408 470.113 182.509C463.495 189.465 456.877 196.42 450.259 203.375C445.472 208.407 440.507 213.749 438.782 220.471C437.123 226.931 438.742 233.871 441.778 239.812C444.933 245.838 449.359 251.111 454.75 255.267C461.396 246.134 470.707 233.523 470.707 233.523L472.875 264.891C484.134 268.616 496.229 269.348 508.095 268.525L511.609 255.663L515.298 267.812C529.478 265.936 543.723 261.05 552.5 250.007C562.205 237.798 562.72 219.151 553.705 206.427Z" fill="#2F2E41"/>
<path d="M474.524 203.259C472.563 193.432 474.682 183.25 481.269 175.453C493.438 161.048 516.219 160.239 532.153 173.646C538.51 178.936 543.073 186.06 545.214 194.04C543.384 185.206 538.603 177.255 531.654 171.487C515.72 158.08 492.939 158.889 480.769 173.295C473.698 181.665 471.776 192.782 474.524 203.259Z" fill="#2F2E41"/>
<path d="M437.088 249.616C435.127 239.789 437.246 229.607 443.833 221.81C456.002 207.405 478.783 206.596 494.717 220.003C501.074 225.293 505.637 232.416 507.778 240.396C505.948 231.563 501.167 223.612 494.217 217.844C478.284 204.437 455.503 205.246 443.333 219.651C436.262 228.021 434.34 239.139 437.088 249.616Z" fill="#2F2E41"/>
<path d="M521.989 197.989C531.981 197.008 541.925 200.113 549.052 207.422C562.22 220.925 560.787 243.631 545.852 258.137C539.952 263.932 532.4 267.762 524.232 269.104C533.22 268.155 541.619 264.189 548.053 257.854C562.988 243.347 564.421 220.641 551.254 207.138C543.603 199.293 532.707 196.29 521.989 197.989Z" fill="#2F2E41"/>
<path opacity="0.1" d="M569.248 332.326C568.276 332.1 567.258 332.175 566.33 332.539C565.401 332.903 564.605 333.54 564.047 334.365C563.653 335.002 563.37 335.701 563.208 336.432C562.746 338.434 562.838 340.523 563.474 342.476C564.11 344.429 565.266 346.173 566.818 347.522C567.632 348.12 568.404 348.773 569.127 349.478C569.797 350.288 570.263 351.247 570.484 352.273C570.706 353.3 570.676 354.365 570.399 355.378C569.817 357.408 568.603 359.2 566.933 360.495C566.584 360.731 566.293 361.042 566.08 361.405C565.512 362.619 566.978 363.773 567.351 365.06" fill="white"/>
</g>
<defs>
<clipPath id="clip0_10_41">
<rect width="946" height="582" fill="white"/>
</clipPath>
</defs>
</svg>
